<?xml version="1.0" encoding="UTF-8"?><svg id="a" xmlns="http://www.w3.org/2000/svg" viewBox="0 0 446.92 446.92"><defs><style>.b{fill:#eb0000;}</style></defs><path class="b" d="M239.93,373.32c-4.41-1.71-6.02-4.92-5.97-9.6,.16-15.21,.06-30.43,.06-45.65,0-.78-.06-1.57,.06-2.34,.35-2.32,1.73-3.71,4.08-3.85,2.38-.14,3.9,1.16,4.47,3.4,.26,1.01,.18,2.13,.18,3.2,0,15.21,0,30.42,0,45.84h91.84v-22.29c-1.05,.95-1.76,1.55-2.43,2.2-3,2.94-5.9,5.99-9,8.81-3.47,3.16-6.33,3.1-9.88,.12-.37-.31-.72-.66-1.07-1-9.72-9.61-19.49-19.18-29.14-28.86-8.61-8.63-10.94-20.88-6.26-31.85,6.06-14.22,20.85-19.32,34.83-11.95,2.23,1.18,4.28,2.7,6.67,4.22,4.36-3.51,9.32-6.26,15.14-7.25,.53-.09,1.26-1.19,1.27-1.82,.08-10.42,.06-20.85,.06-31.51h-92.03v3.27c0,15.8,0,31.6-.01,47.4,0,1.16,0,2.38-.33,3.46-.66,2.12-2.27,3.13-4.5,2.93-2.24-.2-3.53-1.54-3.89-3.71-.14-.86-.07-1.75-.07-2.63,0-16.68,.07-33.36-.05-50.04-.03-3.93,.89-7.1,4.77-9.22-7.66-8.39-8.49-18.55-8.45-29.05,.09-25.95,.33-51.9-.17-77.83-.22-11.48,8.56-19.13,20.04-16.11,0-3.58-.07-7.06,.02-10.53,.06-2.33,.02-4.73,.58-6.97,2.25-8.99,11.92-14.07,20.7-11.04,.91,.31,1.79,.72,2.67,1.07,5.85-8.9,11.52-11.87,19.12-10.04,7.19,1.73,11.57,7.12,12.48,15.25,3.02-.31,6.1-1.13,9.05-.81,8.51,.91,14.2,7.69,14.23,16.52,.05,18.53,.02,37.06,.02,55.6,0,1.03,0,2.05,0,3.6,4.42-3.63,8.74-6.25,14.01-6.51,2.22-.11,4.53-.06,6.67,.45,8.57,2.06,11.57,7.51,8.85,16.05-3.34,10.48-6.91,20.88-10.26,31.36-.89,2.77-1.45,5.67-1.92,8.54-1.19,7.18-3.28,14.02-7.36,20.55,4.49,2.33,4.72,6.4,4.66,10.75-.13,9.65-.08,19.31,.03,28.97,.01,.99,.75,2.62,1.49,2.85,12.95,3.94,22.72,23.45,12.68,39.97-2.98,4.9-7.54,8.89-11.65,13.03-1.88,1.89-2.7,3.7-2.65,6.36,.16,8.87-.08,17.75,.12,26.63,.1,4.69-1.41,8.13-5.82,10.07h-97.96Zm-.85-203.65h.12c0,13.95-.02,27.9,0,41.84,.01,9.12,3.36,16.53,11.4,21.38,1.02,.62,2.28,1.17,3.43,1.17,24.24,.07,48.48,.07,72.72-.01,1.05,0,2.47-.68,3.08-1.51,3.39-4.59,5.6-9.73,6.98-15.31,2.59-10.48,5.3-20.94,8.25-31.33,1.43-5.05,3.42-9.94,5.31-14.85,1.03-2.68-.14-3.77-2.54-4.34-3.89-.92-7.38-.01-10.52,2.28-5.33,3.9-7.85,9.33-8.19,15.79-.13,2.4-.68,4.33-3.01,5.55-8.46,4.41-15.83,9.96-19.91,19.01-.96,2.12-3.11,2.7-5.27,1.79-2.26-.94-3.47-2.85-2.53-5.18,1.08-2.68,2.43-5.33,4.12-7.67,4.07-5.6,9.39-9.92,15.33-13.4,1.86-1.09,2.45-2.24,2.44-4.35-.08-24.68-.05-49.35-.06-74.03,0-1.07,.04-2.16-.14-3.21-.64-3.72-3.82-6.33-7.41-6.18-3.64,.15-6.57,2.93-6.97,6.68-.1,.97-.06,1.95-.06,2.92,0,13.56,0,27.12-.01,40.67,0,3.25-1.61,5.17-4.24,5.25-2.76,.08-4.52-1.9-4.54-5.26-.04-5.85-.01-11.7-.01-17.56,0-13.27,.03-26.53-.02-39.8-.02-4.31-2.95-7.42-6.92-7.6-4.1-.18-7.28,2.83-7.61,7.25-.07,.87-.03,1.75-.03,2.63,0,19.21,0,38.43,0,57.64,0,.97,.05,1.96-.08,2.92-.28,2.23-1.68,3.54-3.84,3.77-2.19,.24-3.84-.8-4.5-2.93-.34-1.09-.37-2.3-.37-3.46-.02-13.07-.01-26.14-.02-39.21,0-4.29,.07-8.59-.04-12.87-.11-4.19-3-7.05-6.98-7.15-4.01-.09-6.95,2.58-7.38,6.76-.11,1.06-.09,2.14-.09,3.21,0,16,0,31.99-.01,47.99,0,1.07,.02,2.16-.17,3.21-.39,2.22-1.82,3.42-4.05,3.49-2.37,.07-3.91-1.12-4.38-3.46-.21-1.04-.18-2.13-.19-3.2-.02-7.9,0-15.8-.03-23.7-.01-2.72-1.17-4.72-3.92-5.48-2.53-.69-5.41,.48-6.43,2.84-.55,1.28-.68,2.82-.69,4.25-.05,14.24-.03,28.48-.03,42.72Zm79.22,176.54c10.33-10.45,20.37-20.27,30.01-30.46,6.49-6.86,6.48-17.91,.6-25.28-3.7-4.63-8.49-6.28-14.3-5.16-4.66,.9-8.48,3.29-11.92,6.44-3.34,3.06-5.37,2.8-8.95,.07-2.98-2.28-6.18-4.52-9.64-5.85-6.48-2.49-12.26-.68-16.34,4.28-5.97,7.26-6.18,18.44,.26,25.28,9.69,10.29,19.83,20.14,30.29,30.68Z"/><path class="b" d="M93.88,373.32c-4.22-1.99-5.62-5.3-5.46-9.91,.28-7.89,.07-15.8,.09-23.7,0-3.52,1.51-5.48,4.19-5.58,2.81-.1,4.58,1.97,4.59,5.55,.03,7.12,.01,14.24,.01,21.36,0,1.05,0,2.1,0,3.3h83.13v-79.82H97.3c0,1.3,0,2.54,0,3.77,0,8.78,0,17.56,0,26.33,0,.88,.05,1.78-.14,2.62-.54,2.4-2.08,3.78-4.59,3.61-2.49-.17-4-1.66-4.01-4.18-.05-11.51-.17-23.02,.13-34.52,.06-2.12,1.93-4.2,3.18-6.73-5.91-6.93-6.85-15.9-6.81-25.23,.08-23.7,.41-47.41-.16-71.1-.25-10.46,7.31-18.36,18.37-15.88,0-3.44,.17-6.82-.03-10.18-.71-12.09,11.12-19.83,21.41-15.13,.24,.11,.56,.07,.97,.11,3.39-6.46,8.61-10.21,16.08-9.14,8,1.14,12.09,6.48,13.18,13.97,2.87-.2,5.6-.82,8.22-.49,7.62,.96,12.92,7.17,12.95,14.94,.07,16.68,.02,33.36,.03,50.03,0,1.06,0,2.11,0,3.25,3.01-1.47,5.75-3.19,8.73-4.13,2.44-.77,5.23-1.08,7.76-.75,9.97,1.31,13.46,6.98,10.32,16.47-2.42,7.3-5.22,14.48-7.49,21.82-1.52,4.92-2.27,10.07-3.65,15.03-1.6,5.77-3.52,11.46-5.46,17.7,3.06,1.73,3.25,5.32,3.24,9.18-.07,25.94-.1,51.89,.02,77.83,.02,4.63-1.39,7.95-5.9,9.6H93.88Zm-.01-156.92h.02c0,12.68-.02,25.36,0,38.05,.02,8.31,2.68,15.34,10.15,19.83,1.1,.66,2.46,1.22,3.71,1.22,21.8,.07,43.6,.08,65.4-.02,1.12,0,2.81-.77,3.25-1.66,2.22-4.51,4.92-9,5.97-13.82,2.72-12.51,6.05-24.78,10.72-36.69,.71-1.81,1.18-3.71,1.9-5.52,.69-1.73-.04-2.52-1.6-3.03-3.45-1.12-6.58-.35-9.46,1.6-5.3,3.57-7.49,8.83-7.81,14.97-.13,2.42-1.18,3.93-3.28,5.06-7.43,3.98-14,8.86-17.57,16.91-.86,1.94-2.78,2.76-4.95,2.07-2.23-.71-3.56-2.38-3.03-4.67,.47-2.04,1.37-4.08,2.52-5.84,3.79-5.82,8.89-10.38,14.86-13.87,2.09-1.23,2.67-2.59,2.65-4.88-.1-11.9-.05-23.8-.05-35.7,0-10.54,0-21.07-.01-31.61,0-1.16,.01-2.37-.3-3.48-.77-2.78-3.71-4.66-6.53-4.35-3.23,.35-5.57,2.9-5.59,6.42-.06,12.68-.02,25.36-.04,38.05,0,1.06-.02,2.17-.31,3.17-.62,2.13-2.23,3.27-4.41,3.09-2.29-.18-3.76-1.54-4.02-3.92-.1-.87-.05-1.75-.05-2.63,0-16.29,0-32.58,0-48.87,0-.98,.05-1.96-.06-2.92-.4-3.43-2.98-5.84-6.21-5.87-3.24-.03-5.81,2.32-6.24,5.79-.13,1.06-.11,2.14-.11,3.21,0,17.36,0,34.73-.01,52.09,0,1.17,.32,2.64-.25,3.43-.97,1.35-2.5,3.07-3.87,3.15-1.38,.08-3.11-1.45-4.22-2.68-.63-.7-.43-2.23-.43-3.39-.03-10.63-.01-21.27-.02-31.9,0-5.27,0-10.54-.06-15.8-.03-2.72-1.45-4.67-3.96-5.61-2.36-.89-4.91-.67-6.45,1.35-1.14,1.5-1.96,3.66-1.98,5.53-.16,15.12-.09,30.24-.09,45.36,0,.97,.09,1.98-.1,2.92-.47,2.3-2.03,3.64-4.33,3.62-2.3-.02-3.82-1.38-4.28-3.68-.17-.85-.08-1.75-.09-2.63,0-7.32,.04-14.63-.03-21.95-.03-2.87-1.94-4.8-4.46-4.82-2.59-.02-4.73,2.08-4.89,4.83-.04,.68-.01,1.37-.01,2.05,0,12.68,0,25.36,0,38.05Z"/><path class="b" d="M196.13,82.39c4.49-3.37,9.32-5.39,14.82-5,8.99,.63,16.17,7.83,17.26,17.06,.87,7.33-1.16,13.68-6.45,18.92-6.8,6.73-13.57,13.48-20.4,20.18-3.92,3.84-6.71,3.87-10.58,.08-7.04-6.9-14.11-13.77-20.99-20.82-5.87-6.02-7.53-13.34-5.29-21.35,3.48-12.43,15.99-17.62,27.46-11.58,1.37,.72,2.66,1.61,4.16,2.53Zm.1,44.4c6.92-7.04,13.56-13.65,20.03-20.42,4.49-4.7,4.54-12.32,.37-17.11-3.41-3.92-8.86-4.16-14.06-.63q-6.57,4.46-13,.06c-7.3-5-14.89-2.37-16.83,5.91-.94,4-.42,8,2.44,11,6.72,7.06,13.72,13.85,21.06,21.19Z"/></svg>