<?xml version="1.0" encoding="UTF-8"?><svg id="a" xmlns="http://www.w3.org/2000/svg" viewBox="0 0 446.92 446.92"><defs><style>.b{fill:#eb0000;}</style></defs><path class="b" d="M412.92,269.48c-3.23,12.36-11.43,20.75-21.31,28.27-28.39,21.59-56.92,42.94-88.03,60.53-11.16,6.31-22.5,12.99-35.42,14.25-9.56,.93-19.53,.36-29.04-1.25-34.36-5.81-68.59-12.34-102.88-18.59-.36-.07-.73-.05-1.12-.08-.16,.17-.45,.33-.47,.52-.81,8.09-1.59,8.79-9.83,8.79-4.05,0-8.09,0-12.67,0,0,2.02,.09,3.71-.02,5.38-.26,3.93-2.22,5.98-6.06,5.99-21.95,.05-43.9,.05-65.86,0-3.73,0-6.13-2.25-6.18-5.46-.06-3.32,2.45-5.63,6.37-5.65,11.22-.04,22.45-.02,33.67-.02,1.34,0,2.68,0,4.24,0,.79-4.53-1.16-11.13,6.13-10.96,6.83,.16,4.85,6.39,5.51,10.74h10.68V228.21H45.15v4.35c0,36.58,0,73.15,0,109.73,0,1.11,.06,2.23-.04,3.33-.29,3.13-2.67,5.38-5.56,5.35-2.89-.03-5.2-2.29-5.49-5.45-.08-.86-.03-1.73-.03-2.59,0-39.3,0-78.59,0-117.89,0-6.69,1.55-8.23,8.29-8.23,20.23,0,40.45,0,60.68,0,7.85,0,8.98,1.09,9.2,8.87,.02,.61,.1,1.22,.2,2.31,4.66,0,9.3,0,13.95,0,6.46,0,7.95,1.47,8.19,8.03,.02,.6,.12,1.19,.21,2.07,4.27-.42,8.39-.86,12.51-1.21,22.63-1.94,44.44,2.1,65.79,9.26,24.16,8.1,48.29,16.32,72.42,24.51,12.6,4.28,19.09,15.59,16.02,27.84-3.29,13.09-15.09,20.91-28.11,18.99-25.35-3.75-50.73-7.31-76.1-10.95-.61-.09-1.23-.13-1.83-.26-3.46-.76-5.49-3.21-5.15-6.17,.36-3.18,2.98-5.26,6.67-4.81,8.56,1.03,17.11,2.18,25.65,3.41,17.56,2.53,35.1,5.18,52.66,7.72,7.37,1.07,13.77-3.43,15.44-10.7,1.56-6.78-1.76-12.11-9.24-14.59-28.38-9.45-56.67-19.21-85.2-28.17-19.58-6.15-39.76-6.72-60.03-3.58-.46,.07-.92,.19-1.54,.33-.06,1.18-.16,2.27-.16,3.36,0,28.05,.04,56.1-.08,84.15-.01,2.94,.84,3.98,3.74,4.51,34.3,6.17,68.53,12.76,102.88,18.61,10.82,1.84,22.1,4.01,32.86-.52,8.72-3.67,17.43-7.55,25.65-12.22,32.89-18.71,63.12-41.31,92.68-64.83,2.72-2.16,4.81-5.31,6.64-8.33,4.29-7.07,3.74-13.49-1.16-18.74-5.01-5.38-12.81-6.78-19.68-3.52-12.46,5.92-24.89,11.91-37.39,17.75-7.25,3.39-14.61,6.56-21.94,9.76-4,1.74-7.14,.87-8.56-2.21-1.49-3.25,.07-6.17,4.17-8.07,19.67-9.1,39.37-18.15,58.99-27.38,15.91-7.49,34.1,.66,38.92,17.61,.17,.59,.45,1.14,.68,1.71v8.16ZM123.03,350.47v-111.09h-10.66v111.09h10.66Z"/><path class="b" d="M263.01,214.3c5.48-5.51,10.87-10.92,16.25-16.33,.87-.87,1.71-1.79,2.65-2.59,2.51-2.12,5.54-2.12,7.69-.09,2.2,2.08,2.59,5.31,.33,7.65-7.73,7.98-15.57,15.86-23.55,23.58-2.58,2.5-5.38,1.94-8.44-1.11-7.27-7.22-14.49-14.5-21.73-21.75-14.04-14.07-28.23-28-42.09-42.24-27.62-28.39-15.43-75.07,22.4-85.78,15.5-4.39,30.01-1.67,43.35,7.35,.91,.62,1.8,1.27,2.23,1.57,6.07-2.93,11.56-6.38,17.54-8.34,22.19-7.29,46.27,1.63,58.78,21.28,12.52,19.66,10.44,45.11-5.55,62.38-8.63,9.33-17.85,18.11-26.87,27.08-2.71,2.7-5.9,2.8-8.24,.56-2.46-2.35-2.39-5.63,.44-8.49,8.24-8.35,16.65-16.53,24.81-24.94,20.48-21.11,14.38-54.8-12.12-65.89-15.37-6.44-29.71-3.83-42.44,6.94-4.98,4.21-6.45,4.34-11.33,0-16.18-14.4-40.47-13.55-55.48,1.95-14.96,15.45-15.56,39.82-.6,55.28,19.83,20.5,40.18,40.48,60.32,60.67,.42,.42,.94,.73,1.63,1.27Z"/><path class="b" d="M123.03,350.47h-10.66v-111.09h10.66v111.09Z"/></svg>