<?xml version="1.0" encoding="UTF-8"?><svg xmlns="http://www.w3.org/2000/svg" viewBox="0 0 302.68 303.32"><defs><style>.e{fill:#faebe9;}.f{fill:#eb5b45;}</style></defs><g id="a"/><g id="b"><g><path id="c" class="f" d="M237.9,94.52c7.31,13.91,9.31,28.88,6.26,44.6-3.1,15.95-8.36,31.16-14.57,46.08-7.2,17.29-15.48,34.07-22.89,51.26-.61,3.04-.98,3.77-2.71,3.58-24.98-2.71-49.71-6.99-74.27-12.43-9.72-2.15-19.45-4.3-28.81-7.86-10.22-3.89-19.47-9.34-26.93-17.53-10.33-11.36-16.43-24.59-16.83-40.07-.25-9.75,2.61-18.82,6.77-27.46,3.37-7,7.95-13.08,14.09-17.89,7-5.47,15.02-8.34,23.8-9.3,10.09-1.1,19.96,.29,29.73,2.9,1.15,.31,2.32,.59,3.44,1.01,.87,.33,1.09,.04,1.29-.77,2.27-9.39,6.08-18.07,11.67-25.92,5.25-7.36,11.69-13.33,19.91-17.25,8.39-4,17.27-4.89,26.39-3.8,15.48,1.86,27.87,9.37,37.6,21.58,2.23,2.79,4.14,5.8,6.07,9.26ZM81.82,186.92c1.88,1.12,3.5,2.74,5.78,3.08-1.73-1.55-3.91-2.32-5.84-3.53-.5-.56-1.27-.91-1.42-1.8,1.39-.36,2.55,.22,3.66,.85,1.85,1.06,3.69,2.13,5.83,2.56,1.59,.99,2.99,2.26,4.48,3.39,1.17,.89,2.44,1.61,3.93,1.62,1.17,0,2.44,.05,3.24-1.04,1.38-1.9,1.74-2.06,4.02-1.35,1.54,.48,3.02,.68,4.62-.35,1.49,.33,2.86,.97,4.26,1.55,1.95,1.05,3.29,.81,4.32-.8,.16-.24,.53-.56,.19-.81-.41-.3-.63,.15-.84,.44-1.51,2.08-2.2,2.11-3.93,.17-.46-.93-.87-1.88-1.38-2.78-.7-1.24-1.45-1.42-2.63-.71-.42,.25-.82,.54-1.26,.76-.99,.49-1.56,.25-1.81-.85-.2-.88-.23-1.8-.38-2.69-.08-.5,.03-1.19-.69-1.3-.73-.11-1.12,.42-1.35,1.03-.62,1.66-.99,3.42-2.16,4.84-1.73,.03-3.53-.26-4.65-1.55-2.21-2.57-2.71-5.49-1.81-8.69,.16-.57,.56-.99,.98-1.38,1.35-1.27,2.94-2.2,4.55-3.11,1.72-.97,3.29-1.02,4.83,.45,.78,.74,1.7,1.38,2.99,1.46-.67-1.36-1.76-2.22-2.57-3.3-.72-.96-1.57-1.94-1.17-3.25,.41-1.34,.36-2.68,.23-4.04-.13-1.4-.29-2.79-.4-4.19-.04-.53-.12-1.12,.34-1.51,1.29-1.1,1.58-2.64,1.85-4.19,.22-1.26,.32-2.54,.72-3.76,.32-.96,.79-1.81,1.68-2.34,.26-.15,.53-.49,.86-.28,.28,.18,.13,.54,.12,.81-.02,.56-.16,1.12,.18,1.8,1.16-1.14,1.76-2.4,1.92-3.9-1.05,.7-2.13,.78-3.26,.57-1.47-.27-1.73-.74-1.17-2.1-1.45-.28-1.86,1.22-2.89,1.77-.12-1.15,.25-2.03,.9-2.81,.88-1.06,2.02-1.78,3.14-2.53,1.34-.89,2.61-1.84,3.35-3.34,.16-.33,.41-.71,.21-1.05-.26-.43-.76-.28-1.13-.17-1.09,.33-2.15,.72-3.4,1.15,.29-.51,.49-.85,.68-1.2,.19-.35,.65-.73,.48-1.06-.24-.46-.84-.26-1.25-.16-1.73,.42-3.13-.17-4.4-1.33-.67-.61-1.4-1.16-2.31-1.4-.67-.18-1.1-.17-1.05,.74,.03,.52-.12,1.06-.24,1.58-.12,.48-.3,1-.84,1.12-.56,.13-.9-.31-1.22-.68-1.77-2.02-5.02-2.49-7.24-1.05-.63,.41-.88,.86-.23,1.47,.46,.43,.61,1.01,.64,1.58,.07,1.42,.7,2.24,2.15,2.37,.74,.07,.98,.45,.95,1.25-.08,2.19,.13,4.37,.55,6.53,.08,.4,.68,.82,.14,1.19-.54,.38-1.14,.13-1.58-.28-.69-.65-1.31-1.37-1.97-2.05-1.6-1.64-3.5-.25-8.29,3.5,.49-4.23-.93-2.01-1.56-2.89-.54-.76-1.38-1.02-2.17-1.35-1.59-.67-1.9-1.31-1.5-3.02,.33-1.41,1.04-2.68,1.53-4.03,.27-.73,.61-1.49,.32-2.28-.28-.74-1.11-.73-1.88-1.02,.98-.53,1.81-.99,2.2-1.9,.38-.88,1.06-1.43,1.84-1.91,1.12-.7,1.37-1.41,.86-2.44-.56-1.14-2.02-1.91-2.95-1.52-.31,.13-.81,.34-.48,.77,.77,.99,.4,1.97,.12,2.94-.16,.57-.27,1.55-.79,1.52-.67-.04-.83-.99-1.08-1.63-.09-.24,.12-.67-.31-.7-.4-.03-.66,.27-.86,.6-.25,.4-.03,.85-.08,1.35-1.87-.87-3.59-1.72-5.45-2.45-.59,.14-1.96-.54-2.05,.69-.05,.71,.24,1.07,.99,1.07,1.04,0,2.13,.41,2.98,.57,.73,1.23,.54,2.49,.29,3.71-.2,1-.55,1.12-1.36,.47-.22-.18-.42-.4-.57-.65-.21-.34-.36-.36-.65-.07-1.52,1.54-3.48,2.26-5.5,2.85-1.49,.44-2.14,.81-1.05,2.51,.16,.25,.29,.59,.08,.81-.25,.25-.53-.04-.77-.16-.65-.35-.92-.09-1.13,.56-3.16,9.58-4.1,19.28-1.65,29.25,.44,1.81,1.19,3.05,2.79,4.05,5.09,3.18,9.76,7.13,15.78,8.57,.71,.17,1.37,.56,2.05,.84ZM224.34,111.53c.03-.1,.07-.21,.1-.31,.15-.58,.05-1.39,.72-1.6,.76-.23,1.16,.52,1.53,1.03,1.18,1.65,2.28,3.35,3.45,5.01,1.34,1.91,2.63,3.89,5.49,4.3,.5-2.45-.07-4.71-1.29-6.67-.54-.86-.68-1.69-.31-2.58,.68-1.6,1-3.29,1.38-4.98,.36-1.64,.8-3.33,2.17-4.46,.53-.44,.56-.69,.3-1.28-2.48-5.57-5.72-10.67-9.75-15.21-10.5-11.82-23.52-18.31-39.27-18.94-.44-.02-.9-.15-1.32,.11-2.68,1.63-5.99,2.44-7.36,5.76-.05,.11-.13,.21-.22,.3-.35,.34-.65,.74-1.2,.78-.6,.04-.68-.56-1.06-.98-.32,1.29-.71,2.39-.84,3.52-.23,1.94-1.09,3.18-3.08,3.46-.04,0-.07,.11-.14,.23l1.11,.49c-2.11,.39-4.04-.09-5.91-.89-.23-.1-.48-.27-.44-.53,.02-.13,.28-.25,.45-.33,.26-.12,.54-.2,.8-.3,1.68-.66,3.31-1.43,4.77-2.51,.35-.26,.78-.57,.66-1.1-.13-.54-.65-.57-1.09-.66-1.11-.22-2.2-.1-3.28,.17-1.76,.44-3.37,1.25-5.04,1.91-.64,.26-1.25,.36-1.88,0-.89-.51-1.74-.35-2.56,.15-2.66,1.6-4.54,3.83-5.47,6.84-.58,1.86-.85,3.78-.99,5.72-.12,1.6-.58,3.06-1.29,4.47-2.08,4.14-2.32,3.16,1.15,6.91,1.13-1.14,1.52-2.6,2.01-4.01,1.54,1.79,3.25,3.32,5.45,4.67,.03-2.24,.06-4.33,.08-6.43,0-.33-.12-.64-.48-.8-1.03-.48-1.2-1.39-1.16-2.39,.1-2.31,.72-4.49,1.72-6.58,.47-.42,1.31-1.5,2.15-1,.65,.39,0,.95-.11,1.4-.4,1.56-.96,3.09-.4,4.73,.6,1.74,2.32,2.24,3.71,1.09,.66-.55,1.28-1.14,1.92-1.72,.52-.47,1.15-.65,2.03-.78-.41,.71-.87,1.02-1.3,1.37-.89,.72-1.87,1.32-2.61,2.22-.36,.44-.54,.72,.17,1.09,1.17,.62,1.16,.84,.1,1.57-.9,.62-1.16,1.31-.55,2.3,.4,.65,.32,1.34,.06,2.03-.88,2.29-5.68,5.3-8.27,4.46,0,1.81-.7,3.38-1.5,4.92-1.23,2.38-2.75,4.57-4.45,6.62-.46,.56-.39,.74,.24,1.02,.78,.35,1.55,.78,2.26,1.26,1.17,.8,1.2,1.43,.16,2.34-.74,.65-1.49,1.28-2.28,1.87-1.18,.89-1.45,2.05-.95,3.4,.83,2.23,2.52,3.7,5.12,4.22,1.88-1.05,3.43-2.77,3.03-4.93-.34-1.84,.04-3.28,.88-4.9,2.52-4.82,8-5.64,11.65-1.6,.15,.17,.26,.5,.56,.31,.21-.13,.32-.39,.25-.65-.1-.4-.45-.88-.32-1.16,.47-1.04-.33-1.03-.89-1.23-1.79-.64-3.59-1.22-5.27-2.13-.38-.2-1-.37-.85-.9,.23-.84,1.85,.15,1.55-.92,2.58,.83,4.87,2.27,7.28,3.44,1.24,.6,2.53,.92,3.92,.47-.17-.39-.52-.43-.78-.61-.5-.34-.99-.76-.8-1.4,.27-.88,1.02-1.39,1.81-1.74,.71-.32,.74,.5,.99,.83,1.61,2.16,3.44,2.64,5.81,1.38,.75-.4,1.51-.86,2.13-1.44,.75-.7,1.09-.38,1.41,.36,.54,1.25,1.1,2.5,1.62,3.76,.94,2.28,1.99,4.51,4.28,5.75,1.82,.98,3.5,2.17,5.23,3.3,2.1,1.38,4.16,2.84,6.41,3.97,.41,.2,.81,.55,1.3-.02,2.75-3.21,5.21-6.55,5.59-11,.1-1.2-.12-2.06-1.3-2.62-.81-.39-1.52-1.01-2.29-1.54-.17,2.33-1.44,3.28-3.64,2.56-1.59-.52-2.99-1.53-4.53-2.2-.71-.31-1.25-1.17-.83-1.98,.44-.84,1.33-.65,2.09-.33,.64,.27,1.21,.72,1.92,.82,2.84,.38,5.63,.54,8.25-.97,3.38-1.96,6.73-2.19,9.94,.51,.06,.05,.16,.05,.26,.07Zm-32.12,7.38c-.49-.94-.71-2.06-1.93-1.72-3.23,.9-6.43,1.92-9.29,3.76-.62,.4-1.2,.92-.99,1.69,.39,1.41-.43,1.54-1.42,1.56-2.07,.05-4.15-.54-6.21,.21-.68,.25-1.16-.25-1.19-1.02-.01-.33,0-.66-.04-.99-.1-1.08-.57-1.43-1.66-1.22-.87,.17-1.57,.66-2.27,1.18-2.18,1.61-3.89,3.74-5.98,5.44-1.98,1.61-2.8,3.67-2.56,6.19,.17,1.84-.17,3.6-.72,5.35-.57,1.8-1.12,3.63-1.1,5.56,.01,1.06,.15,2.26,1.22,2.67,1.85,.72,2.37,2.24,2.93,3.87,.45,1.32,.85,2.7,2.2,3.48,2.26,1.29,4.58,2.44,6.99,3.43,1.92,.79,3.34,.19,4.51-1.85,4.48-5.17,4.2-5.93,7.81-4.57,.63,.24,1.27,.48,1.9,.19,2.53-1.18,2.94,2.79,4.82,7.89,2.32-2.38,3.59-1.28,4.6-.19,1.91,2.06,3.7,4.17,3.19,7.29-.16,1,.35,1.71,1.12,2.33,2.92,2.36,6.06,4.44,8.83,6.99,1.43,1.32,2.79,2.7,3.56,4.55,.66,1.59,1.13,1.76,2.61,.95,.46-.26,.9-.57,1.33-.88,3.09-2.24,4-5.46,3.95-9.1-.03-1.69-.25-3.4,.15-5.06,.31-1.28-.19-2.13-1.15-2.89-1.72-1.38-1.76-1.54-.83-3.51,1.28-2.7,1.28-5.19-.89-7.54-3.51-3.83-4.23-8.27-2.81-13.16,.42-1.46,.79-2.95,1.1-4.44,.52-2.49,.43-4.99-.7-7.43-1.02,.61-1.74,1.57-2.62,2.34-.97,.83-2.04,1.17-3.29,.58-1.23-.58-2.51-1.06-3.71-1.7-4.49-2.39-8.72-5.17-12.27-8.89-.44-.46-.84-.96-1-1.66,.66-.16,1.12,.17,1.8,.31Zm-34.09,110.32q1.35,2.65,3.66,3.06c.93,.17,1.87,.29,2.79,.5,.77,.18,.95-.2,.93-.84-.03-.99-.39-1.86-.97-2.64-.72-.96-.93-2.01-.63-3.16,.3-1.15-.04-2.1-.83-2.96-1.04-1.14-.96-1.39,.48-1.77,.93-.25,1.42-.87,.99-1.81-.19-.42-.05-.62,.12-.86,.38-.53,.8-1.04,1.2-1.55,1.36-1.77,1.27-2.32-.58-3.53-.24-.16-.49-.31-.74-.45-.58-.34-.41-.62,.06-.86,1.09-.55,2.43,.15,3.37-1.15,.23-1.11-.64-2.48-.14-3.62,.88-1.98,.37-3.86-.24-5.76-.91-2.84-.35-5.17,2.19-6.93,1.32-.91,1.7-2.27,1.17-3.83-.21-.63-.43-1.26-.75-1.83-1.02-1.82-1.49-3.7-1.31-5.81,.15-1.79,.13-3.63-.47-5.39-.34-.99-.94-1.49-2.03-1.38-1.28,.13-2.49,.47-3.67,.91-1.28,.48-2.57,.84-3.95,.41-1.67-.52-3.06-.25-4.04,1.32-.17,.26-.47,.46-.75,.62-1.58,.92-1.18-.2-1.02-4.42-3.28,.25-6.42,.41-9.55-.32-4.16-.97-8.01-.52-11.2,2.59-.58,.56-.62-.01-.85-.29-.2-.25-.37-.61-.76-.52-.31,.08-.38,.42-.43,.7-.4,2.23-.86,4.46-.61,6.74,.27,2.46,.83,4.88,1.34,7.31,.54,2.56,2.34,4.16,5.75,4.39,2.07,3.73,4.52,6.18,8.18,5.59,1.43-.23,2.64,.33,3.67,1.37,.73,.75,1.33,1.58,1.84,2.49,1.89,3.36,2.8,7.07,3.74,10.75,1.17,4.56,1.93,9.24,4.04,12.92ZM92.14,124.73c.26-.39,.43-.62,.58-.86,.68-1.14,.42-1.64-.93-1.73-.4-.03-.82,.01-1.22,.05-2.17,.21-4.28,.75-6.29,1.54-1.94,.76-3.76,1.41-5.84,.41-.9-.43-1.08,.25-.82,.98,.23,.62,.58,1.19,.89,1.77,.16,.3,.33,.64,.09,.92-.27,.31-.69,.23-1.04,.09-.86-.35-1.42-.99-1.63-1.89-.11-.5-.33-.9-.75-.38-.63,.78-1.44,1.66-1.01,2.76,.38,.98,1.43,.77,2.27,.8,.28,0,.57-.03,.85-.07,2.29-.3,4.42-1.1,6.58-1.87,2.7-.96,5.5-1.63,8.27,1.08,.17-.98,2.42,.21,3.13-.89,.56-.87,1.22-.74,1.99-.64,.49,.06,.98,.12,1.47,.09,.54-.03,1.32,.13,1.34-.68,.02-.7-.45-1.27-1.2-1.36-.77-.09-1.55-.11-2.32-.13-1.42-.03-2.83,.22-4.42,.02Zm133.41,27.2c-.26-.48-.41-.83-.62-1.13-.18-.25-.26-.69-.66-.63-.32,.05-.31,.45-.39,.7-.77,2.28-1.27,4.6-1.12,7.03,.09,1.41,.33,2.8,1.35,3.9,.66,.71,1.43,1.47,2.44,1.1,.93-.34,.92-1.39,.92-2.25,.03-3.1-.78-6.04-1.91-8.73Zm-134.92-19.94c2.12,.36,4.11,.45,6.11,.32,.56-.03,1.61,.3,1.61-.46,0-.61-1.06-.48-1.68-.57-.05,0-.08-.1-.15-.19,.44-.65,1.18-.39,1.77-.55,.42-.12,.79-.33,.83-.79,.04-.52-.43-.57-.77-.62-2.09-.29-4.16-.27-6.19,.37-.4,.13-.82,.27-.76,.8,.07,.66-.3,1.14-.75,1.69Zm23.4,9.08c-.47,1.29-.68,2.49-.67,3.73,0,1.17,.67,.6,2.32-.81,1.67-.41,1.71-.85,1.33-1.48-.42-.71-1.07-1-1.78-.65-.85,.42-1.09,.07-1.2-.79Zm1.74,37.87c-2.62-1-6.18-.65-7.21,1.4,2.25-.41,4.48-.81,6.71-1.22,.11-.02,.22-.07,.5-.18Zm-42.05-54.85l.2,.27c1.61-.84,2.98-1.99,4.22-3.33,.23-.25,.78-.51,.47-.88-.41-.49-.9-.15-1.26,.21-1.22,1.23-2.42,2.48-3.63,3.72Zm-9.19,15.5c.9-.06,1.68-.4,1.95-.75,.42-.53-.19-.67-.35-.99-.19-.39,.2-.45,.39-.63,.2-.18,.49-.33,.39-.66-.03-.1-.27-.14-.42-.19-.39-.14-.6,.03-.75,.39-.39,.93-.8,1.85-1.23,2.82Zm53.66,39c.98,.46,1.74,.83,2.62,.79,.6-.03,.87-.4,.78-.99-.05-.33,0-.88-.55-.73-.88,.25-1.85,.22-2.84,.93Zm-46.03-51.93c-.13-.03-.31-.11-.46,.11-.71,1.03-1.45,2.05-2.13,3.1-.3,.48,.2,.53,.48,.6,.34,.08,.94,.16,.81-.35-.31-1.28,.47-1.98,1.16-2.77,.14-.16,.41-.32,.14-.69Zm9.01-4.72c-.17,.24-1.13,.23-.67,.83,.53,.68,1.36,.24,2.01-.1,.41-.21,.9-.64,.63-1.04-.42-.61-1.02-.08-1.53,.08-.11,.04-.22,.11-.43,.23Zm-9.8,14.42c.01-.26,.74-.2,.39-.65-.35-.46-.93-.75-1.53-.46-.42,.21-.74,.73-.48,1.12,.41,.6,1.01,.23,1.61-.01Zm37.69,20.84c-.15-.21-.3-.52-.56-.34-.45,.33-.65,.85-.5,1.4,.08,.31,.44,.46,.68,.24,.38-.33,.56-.79,.37-1.31Z"/><g id="d"><path class="e" d="M224.34,111.53c-.11-.03-.21-.03-.26-.07-3.21-2.69-6.56-2.46-9.94-.51-2.62,1.52-5.41,1.36-8.25,.97-.71-.1-1.28-.54-1.92-.82-.75-.32-1.65-.5-2.09,.33-.42,.8,.11,1.67,.83,1.98,1.55,.67,2.94,1.68,4.53,2.2,2.2,.72,3.47-.23,3.64-2.56,.77,.53,1.48,1.15,2.29,1.54,1.19,.56,1.4,1.43,1.3,2.62-.38,4.46-2.84,7.79-5.59,11-.48,.56-.89,.22-1.3,.02-2.25-1.13-4.31-2.59-6.41-3.97-1.73-1.13-3.41-2.32-5.23-3.3-2.3-1.24-3.34-3.47-4.28-5.75-.52-1.26-1.08-2.51-1.62-3.76-.32-.74-.66-1.06-1.41-.36-.62,.58-1.38,1.03-2.13,1.44-2.36,1.26-4.2,.79-5.81-1.38-.25-.34-.28-1.15-.99-.83-.78,.35-1.54,.86-1.81,1.74-.2,.65,.29,1.06,.8,1.4,.26,.17,.61,.22,.78,.61-1.39,.45-2.68,.13-3.92-.47-1.37-.67-2.7-1.42-4.07-2.1-1.12-.56-2.32-.87-3.58-.8-.42,.02-1.05-.12-1.19,.37-.15,.53,.48,.7,.85,.9,1.68,.91,3.48,1.5,5.27,2.13,.56,.2,1.35,.19,.89,1.23-.12,.28,.22,.76,.32,1.16,.07,.26-.04,.52-.25,.65-.3,.18-.41-.15-.56-.31-3.64-4.04-9.12-3.22-11.65,1.6-.85,1.62-1.22,3.07-.88,4.9,.32,1.74-.62,3.2-1.99,4.25-.8,.61-1.79,.57-2.7,.17-1.67-.73-2.82-2-3.45-3.71-.5-1.35-.23-2.5,.95-3.4,.78-.59,1.54-1.22,2.28-1.87,1.04-.91,1.01-1.54-.16-2.34-.71-.49-1.48-.91-2.26-1.26-.62-.28-.7-.46-.24-1.02,1.7-2.05,3.21-4.25,4.45-6.62,.8-1.54,1.51-3.11,1.5-4.92,2.59,.84,7.39-2.17,8.27-4.46,.26-.68,.35-1.38-.06-2.03-.61-.98-.35-1.67,.55-2.3,1.06-.73,1.06-.95-.1-1.57-.7-.38-.53-.65-.17-1.09,.74-.9,1.72-1.51,2.61-2.22,.43-.35,.89-.67,1.3-1.37-.89,.13-1.51,.31-2.03,.78-.64,.57-1.26,1.17-1.92,1.72-1.38,1.15-3.11,.64-3.71-1.09-.56-1.63,0-3.17,.4-4.73,.12-.45,.77-1.01,.11-1.4-.59-.36-1.18,.07-1.65,.51-.46,.43-.74,.98-.98,1.55-.72,1.76-1.17,3.6-1.25,5.52-.04,1,.13,1.91,1.16,2.39,.36,.17,.48,.47,.48,.8-.01,2.09-.05,4.19-.08,6.43-1.89-1.16-3.42-2.46-4.79-3.94-.5-.54-.71-.55-.96,.15-.37,1.09-.79,2.16-1.64,3.05-.09-.05-.21-.08-.28-.16-3.25-3.48-2.97-2.63-.94-6.68,.71-1.41,1.17-2.88,1.29-4.47,.14-1.94,.42-3.85,.99-5.72,.93-3.01,2.81-5.24,5.47-6.84,.82-.5,1.67-.66,2.56-.15,.63,.36,1.24,.26,1.88,0,1.67-.66,3.29-1.47,5.04-1.91,1.08-.27,2.17-.39,3.28-.17,.44,.09,.96,.12,1.09,.66,.12,.53-.31,.84-.66,1.1-1.46,1.08-3.08,1.85-4.77,2.51-.27,.1-.55,.18-.8,.3-.17,.08-.43,.2-.45,.33-.03,.26,.21,.43,.44,.53,1.87,.8,3.8,1.28,5.91,.89l-1.11-.49c.07-.12,.1-.22,.14-.23,2-.28,2.86-1.53,3.08-3.46,.13-1.13,.52-2.23,.84-3.52,.38,.42,.46,1.02,1.06,.98,.56-.04,.86-.44,1.2-.78,.09-.08,.17-.18,.22-.3,1.37-3.31,4.68-4.13,7.36-5.76,.42-.26,.88-.13,1.32-.11,15.75,.63,28.78,7.12,39.27,18.94,4.04,4.55,7.27,9.64,9.75,15.21,.26,.59,.24,.84-.3,1.28-1.36,1.12-1.81,2.81-2.17,4.46-.37,1.69-.7,3.38-1.38,4.98-.38,.89-.23,1.71,.31,2.58,.86,1.38,1.4,2.92,1.46,4.56,.06,1.6-.91,2.19-2.31,1.39-1.48-.84-2.41-2.24-3.36-3.59-1.16-1.66-2.27-3.36-3.45-5.01-.37-.51-.77-1.27-1.53-1.03-.67,.2-.57,1.01-.72,1.6-.03,.11-.07,.21-.1,.31Z"/><path class="e" d="M192.22,118.91c-.68-.14-1.14-.47-1.8-.31,.16,.7,.55,1.2,1,1.66,3.55,3.73,7.77,6.5,12.27,8.89,1.2,.64,2.48,1.12,3.71,1.7,1.25,.59,2.32,.25,3.29-.58,.56-.48,1.05-1.04,1.59-1.54,.75-.7,1.18-.6,1.5,.39,.67,2.06,.67,4.15,.23,6.24-.31,1.49-.68,2.97-1.1,4.44-1.42,4.88-.7,9.33,2.81,13.16,2.16,2.36,2.17,4.84,.89,7.54-.93,1.97-.89,2.13,.83,3.51,.95,.77,1.46,1.62,1.15,2.89-.4,1.66-.18,3.37-.15,5.06,.06,3.64-.86,6.86-3.95,9.1-.43,.31-.86,.62-1.33,.88-1.48,.82-1.95,.65-2.61-.95-.77-1.85-2.13-3.23-3.56-4.55-2.77-2.55-5.91-4.63-8.83-6.99-.76-.62-1.28-1.33-1.12-2.33,.51-3.12-1.28-5.23-3.19-7.29-.31-.33-.64-.67-1.02-.9-2.53-1.57-4.59-3.61-6.22-6.1-.55-.84-1.21-1.15-2.18-.7-.63,.29-1.27,.05-1.9-.19-2.62-.99-3.19-.86-5.01,1.25-1.17,1.36-2.27,2.79-3.39,4.2-1.06,1.32-2.32,1.63-3.92,.97-2.41-.99-4.73-2.14-6.99-3.43-1.36-.77-1.75-2.16-2.2-3.48-.56-1.63-1.08-3.15-2.93-3.87-1.06-.41-1.2-1.61-1.22-2.67-.02-1.93,.53-3.75,1.1-5.56,.55-1.75,.89-3.5,.72-5.35-.24-2.53,.58-4.58,2.56-6.19,2.09-1.7,3.8-3.83,5.98-5.44,.69-.51,1.39-1.01,2.27-1.18,1.08-.21,1.55,.13,1.66,1.22,.03,.33,.03,.66,.04,.99,.03,.78,.51,1.27,1.19,1.02,2.06-.75,4.14-.16,6.21-.21,.99-.02,1.81-.15,1.42-1.56-.21-.77,.37-1.29,.99-1.69,2.86-1.84,6.06-2.86,9.29-3.76,1.21-.34,1.44,.78,1.93,1.72Z"/><path class="e" d="M114.37,191.92c-.84-.34-1.66-.71-2.51-1.02-.83-.3-1.72-.45-2.53-.12-1.31,.54-2.55,.34-3.84-.06-2.28-.71-2.63-.55-4.02,1.35-.8,1.09-2.07,1.05-3.24,1.04-1.49,0-2.76-.74-3.93-1.62-1.02-.77-1.99-1.61-3.01-2.38-.63-.47-1.27-.95-2.04-1.15-1.9-.49-3.57-1.46-5.26-2.43-1.11-.64-2.27-1.21-3.66-.85,.15,.89,.92,1.23,1.42,1.8l.05,.44c-.68-.29-1.34-.67-2.05-.84-6.02-1.44-10.69-5.39-15.78-8.57-1.6-1-2.35-2.24-2.79-4.05-2.44-9.97-1.51-19.67,1.65-29.25,.21-.64,.48-.9,1.13-.56,.24,.12,.52,.42,.77,.16,.22-.22,.08-.56-.08-.81-1.08-1.7-.43-2.07,1.05-2.51,2.01-.59,3.97-1.31,5.5-2.85,.28-.29,.44-.26,.65,.07,.15,.24,.35,.47,.57,.65,.81,.65,1.16,.53,1.36-.47,.09-.44,.17-.89,.21-1.34,.12-1.62-.43-2.37-2.02-2.74-.48-.11-.97-.2-1.46-.2-.75,0-1.04-.35-.99-1.07,.06-.77,.61-.79,1.16-.73,.99,.1,1.92,.46,2.82,.86,1.16,.52,2.3,1.07,3.51,1.63,.04-.5-.17-.94,.08-1.35,.2-.33,.46-.63,.86-.6,.43,.03,.22,.46,.31,.7,.25,.64,.41,1.59,1.08,1.63,.52,.03,.62-.94,.79-1.52,.28-.98,.65-1.96-.12-2.94-.33-.43,.17-.64,.48-.77,.92-.39,2.39,.39,2.95,1.52,.51,1.03,.26,1.75-.86,2.44-.78,.48-1.46,1.04-1.84,1.91-.39,.91-1.21,1.38-2.2,1.9,.78,.28,1.6,.27,1.88,1.02,.3,.79-.05,1.55-.32,2.28-.5,1.35-1.2,2.62-1.53,4.03-.4,1.71-.09,2.35,1.5,3.02,.8,.34,1.63,.6,2.17,1.35,.24,.33,.59,.22,.91,.19,2.24-.26,4.47-.6,6.61-1.32,.96-.32,1.68-.16,2.34,.52,.66,.68,1.28,1.4,1.97,2.05,.44,.41,1.04,.66,1.58,.28,.54-.37-.06-.8-.14-1.19-.43-2.16-.64-4.34-.55-6.53,.03-.8-.21-1.18-.95-1.25-1.45-.14-2.08-.95-2.15-2.37-.03-.57-.18-1.15-.64-1.58-.65-.61-.4-1.06,.23-1.47,2.22-1.44,5.47-.97,7.24,1.05,.33,.37,.66,.82,1.22,.68,.54-.13,.72-.64,.84-1.12,.12-.52,.27-1.06,.24-1.58-.05-.91,.38-.92,1.05-.74,.91,.24,1.63,.79,2.31,1.4,1.27,1.16,2.67,1.74,4.4,1.33,.4-.1,1-.29,1.25,.16,.17,.33-.28,.71-.48,1.06-.19,.35-.39,.69-.68,1.2,1.25-.43,2.32-.82,3.4-1.15,.37-.11,.87-.25,1.13,.17,.21,.34-.05,.72-.21,1.05-.73,1.5-2.01,2.45-3.35,3.34-1.12,.75-2.26,1.47-3.14,2.53-.65,.79-1.02,1.66-.9,2.81,1.04-.55,1.44-2.04,2.89-1.77-.56,1.37-.3,1.83,1.17,2.1,1.13,.21,2.21,.13,3.26-.57-.16,1.51-.77,2.76-1.92,3.9-.34-.68-.2-1.24-.18-1.8,0-.28,.16-.64-.12-.81-.33-.22-.6,.12-.86,.28-.89,.53-1.37,1.39-1.68,2.34-.4,1.22-.5,2.5-.72,3.76-.27,1.55-.56,3.09-1.85,4.19-.46,.39-.38,.98-.34,1.51,.11,1.4,.27,2.79,.4,4.19,.13,1.36,.18,2.7-.23,4.04-.4,1.31,.45,2.29,1.17,3.25,.81,1.08,1.89,1.94,2.57,3.3-1.29-.08-2.21-.71-2.99-1.46-1.54-1.47-3.11-1.42-4.83-.45-1.61,.91-3.19,1.83-4.55,3.11-.42,.39-.82,.81-.98,1.38-.9,3.2-.39,6.12,1.81,8.69,.61,.71,1.43,1.11,2.33,1.33,1.71,.42,2.77-.09,3.45-1.71,.4-.95,.67-1.94,1.03-2.9,.23-.61,.62-1.14,1.35-1.03,.71,.11,.61,.8,.69,1.3,.15,.89,.18,1.81,.38,2.69,.25,1.1,.82,1.34,1.81,.85,.44-.22,.84-.51,1.26-.76,1.19-.71,1.93-.53,2.63,.71,.51,.9,.92,1.85,1.38,2.78,.04,.34,.44,.59,.25,.99Z"/><path class="e" d="M158.13,229.23c-2.11-3.68-2.87-8.36-4.04-12.92-.95-3.69-1.85-7.39-3.74-10.75-.51-.91-1.1-1.74-1.84-2.49-1.03-1.04-2.24-1.6-3.67-1.37-2.38,.38-4.25-.52-5.83-2.23-1.56-1.68-3.32-3.08-5.38-4.1-1.49-.74-2.36-1.99-2.71-3.65-.51-2.42-1.07-4.84-1.34-7.31-.25-2.28,.21-4.51,.61-6.74,.05-.28,.12-.62,.43-.7,.38-.1,.56,.26,.76,.52,.22,.28,.27,.85,.85,.29,3.19-3.1,7.05-3.55,11.2-2.59,1.9,.44,3.8,.56,5.74,.52,2.82-.05,3.59,.75,3.65,3.57,.02,1.03,.28,1.17,1.18,.65,.28-.16,.58-.36,.75-.62,.99-1.57,2.37-1.84,4.04-1.32,1.38,.43,2.67,.06,3.95-.41,1.19-.44,2.4-.78,3.67-.91,1.09-.11,1.69,.39,2.03,1.38,.61,1.76,.63,3.6,.47,5.39-.18,2.11,.28,3.99,1.31,5.81,.32,.57,.54,1.21,.75,1.83,.52,1.56,.14,2.92-1.17,3.83-2.53,1.75-3.09,4.09-2.19,6.93,.61,1.91,1.12,3.78,.24,5.76-.35,.79-.03,1.71,.12,2.56,.22,1.29-.12,1.71-1.42,1.89-.64,.09-1.32,0-1.93,.31-.47,.24-.64,.52-.06,.86,.25,.14,.49,.3,.74,.45,1.85,1.21,1.94,1.76,.58,3.53-.4,.52-.82,1.02-1.2,1.55-.17,.24-.32,.45-.12,.86,.43,.94-.06,1.56-.99,1.81-1.43,.38-1.52,.64-.48,1.77,.79,.86,1.13,1.81,.83,2.96-.31,1.15-.09,2.19,.63,3.16,.58,.78,.94,1.65,.97,2.64,.02,.64-.16,1.01-.93,.84-.92-.21-1.86-.33-2.79-.5q-2.31-.42-3.66-3.06Z"/><path class="e" d="M92.14,124.73c1.59,.2,3-.05,4.42-.02,.78,.02,1.56,.03,2.32,.13,.76,.09,1.22,.66,1.2,1.36-.02,.81-.8,.65-1.34,.68-.49,.03-.98-.03-1.47-.09-.77-.1-1.43-.23-1.99,.64-.41,.63-1.33,.51-2.06,.47-.83-.04-1.67-.18-2.37-.62-2.35-1.46-4.69-.86-6.97-.05-2.16,.77-4.29,1.57-6.58,1.87-.28,.04-.57,.08-.85,.07-.84-.03-1.89,.18-2.27-.8-.42-1.1,.39-1.97,1.01-2.76,.42-.52,.63-.12,.75,.38,.2,.91,.77,1.54,1.63,1.89,.35,.14,.76,.23,1.04-.09,.24-.28,.07-.62-.09-.92-.31-.59-.66-1.16-.89-1.77-.26-.72-.08-1.41,.82-.98,2.08,1,3.9,.35,5.84-.41,2.01-.79,4.12-1.32,6.29-1.54,.4-.04,.82-.08,1.22-.05,1.34,.09,1.61,.6,.93,1.73-.15,.24-.32,.47-.58,.86Z"/><path class="e" d="M225.55,151.94c1.13,2.69,1.93,5.62,1.91,8.73,0,.86,0,1.91-.92,2.25-1,.36-1.77-.39-2.44-1.1-1.02-1.1-1.26-2.48-1.35-3.9-.15-2.43,.36-4.76,1.12-7.03,.09-.26,.07-.66,.39-.7,.4-.06,.48,.38,.66,.63,.21,.3,.36,.65,.62,1.13Z"/><path class="e" d="M90.63,131.99c.45-.55,.82-1.02,.75-1.69-.06-.54,.36-.67,.76-.8,2.03-.65,4.1-.67,6.19-.37,.34,.05,.81,.1,.77,.62-.04,.46-.41,.67-.83,.79-.59,.17-1.33-.1-1.77,.55,.07,.09,.11,.18,.15,.19,.62,.09,1.68-.04,1.68,.57,0,.76-1.05,.43-1.61,.46-1.99,.12-3.99,.04-6.11-.32Z"/><path class="e" d="M114.04,141.07c.11,.85,.35,1.21,1.2,.79,.71-.35,1.36-.06,1.78,.65,.27,.45,.33,.79-.23,1.1-.9,.49-1.76,1.05-2.61,1.61-.55,.36-.8,.29-.8-.41-.01-1.24,.2-2.44,.67-3.73Z"/><path class="e" d="M115.78,178.94c-.28,.1-.39,.16-.5,.18-2.23,.41-4.46,.82-6.71,1.22,1.02-2.05,4.58-2.4,7.21-1.4Z"/><path class="e" d="M73.72,124.1c1.21-1.24,2.41-2.49,3.63-3.72,.36-.36,.85-.7,1.26-.21,.3,.37-.24,.63-.47,.88-1.24,1.33-2.61,2.49-4.22,3.33l-.2-.27Z"/><path class="e" d="M81.82,186.92l-.05-.44c1.93,1.21,4.11,1.97,5.84,3.53-2.28-.34-3.9-1.96-5.78-3.08Z"/><path class="e" d="M64.53,139.59c.43-.98,.84-1.9,1.23-2.82,.15-.36,.36-.53,.75-.39,.15,.05,.39,.09,.42,.19,.1,.33-.19,.48-.39,.66-.19,.17-.58,.24-.39,.63,.15,.32,.76,.45,.35,.99-.27,.35-1.05,.7-1.95,.75Z"/><path class="e" d="M118.19,178.59c.99-.71,1.96-.69,2.84-.93,.56-.16,.5,.4,.55,.73,.09,.59-.18,.96-.78,.99-.87,.04-1.64-.33-2.62-.79Z"/><path class="e" d="M72.16,126.66c.27,.37,0,.54-.14,.69-.69,.79-1.47,1.48-1.16,2.77,.12,.51-.48,.43-.81,.35-.28-.07-.78-.12-.48-.6,.68-1.06,1.41-2.07,2.13-3.1,.15-.22,.34-.13,.46-.11Z"/><path class="e" d="M81.17,121.94c.22-.12,.32-.2,.43-.23,.51-.16,1.11-.7,1.53-.08,.27,.4-.22,.83-.63,1.04-.65,.34-1.48,.78-2.01,.1-.46-.59,.5-.59,.67-.83Z"/><path class="e" d="M114.37,191.92c.19-.4-.21-.65-.25-.99,1.73,1.95,2.42,1.92,3.93-.17,.21-.29,.43-.74,.84-.44,.33,.25-.04,.56-.19,.81-1.04,1.61-2.37,1.85-4.32,.8Z"/><path class="e" d="M71.37,136.36c-.6,.24-1.2,.61-1.61,.01-.27-.39,.06-.91,.48-1.12,.6-.29,1.17,0,1.53,.46,.34,.45-.38,.39-.39,.65Z"/><path class="e" d="M109.07,157.21c.19,.52,0,.98-.37,1.31-.25,.21-.6,.07-.68-.24-.15-.56,.05-1.07,.5-1.4,.25-.19,.41,.13,.56,.34Z"/></g></g></g></svg>