<?xml version="1.0" encoding="UTF-8"?><svg id="a" xmlns="http://www.w3.org/2000/svg" viewBox="0 0 446.92 446.92"><defs><style>.b{fill:#eb0000;}</style></defs><path class="b" d="M415.14,213.8c-1.67,1.43-3.18,3.15-5.04,4.25-10.83,6.38-21.75,12.62-33.07,19.16,12.39,7.27,19.83,16.94,15.32,31.53-3.89,12.59-12.12,20.78-26.5,21.35,1.19,11.59-2.81,21.21-11.75,28.37-9.52,7.62-19.71,6.09-30.2,.6-1.02,10.81-5.14,19.81-14.06,25.79-9.55,6.41-19.21,4.22-28.9-.95-.45,2.65-.7,5.07-1.29,7.4-3.62,14.15-14.93,23.23-28.04,21.91-4.21-.43-8.41-2.18-12.32-3.99-5.19-2.4-10.02-5.58-15.15-8.12-1.26-.62-3.35-.62-4.6,.01-4.33,2.18-8.45,4.79-12.68,7.2-20.11,11.46-39.76,1.76-43.02-21.24-.12-.86-.19-1.72-.34-3.14-9.5,4.9-19.14,7.39-28.66,1.13-9.03-5.94-13.46-14.75-14.25-26-10.16,5.19-20.44,7.21-30.1-.4-9.03-7.12-13.12-16.67-12.1-28.46-15.21-.91-23.57-9.9-27.01-23.74-2.87-11.56,1.4-18.9,15.76-29.3-4.41-2.57-8.67-5.07-12.95-7.55-6.15-3.56-12.32-7.08-18.46-10.66-4.23-2.47-4.96-5.04-2.56-9.29,3.93-6.94,7.92-13.85,11.95-20.74,2.11-3.61,5.07-4.66,8.06-3.02,3.05,1.67,3.68,4.99,1.55,8.76-3.12,5.51-6.31,10.98-9.63,16.74,5.46,3.14,10.72,6.17,16.21,9.33,16.58-28.72,33.02-57.2,49.68-86.07-5.38-3.12-10.62-6.16-16.08-9.32-.78,1.26-1.53,2.39-2.2,3.55-8.35,14.47-16.7,28.94-25.05,43.41-.62,1.08-1.19,2.22-1.96,3.18-1.99,2.45-4.52,3.16-7.29,1.49-2.74-1.65-3.38-4.2-2.2-7.13,.41-1.03,1.07-1.97,1.63-2.94,9.28-16.09,18.56-32.18,27.83-48.28,.67-1.16,1.27-2.37,2.06-3.85-1.34-.79-2.49-1.47-3.65-2.14-15.75-9.11-31.51-18.22-47.26-27.34-.86-.5-1.78-.94-2.55-1.55-2.48-1.95-3.27-4.43-1.67-7.25,1.59-2.81,4.17-3.51,7.07-2.37,1.84,.73,3.51,1.88,5.23,2.88,15.76,9.1,31.49,18.26,47.28,27.29,3.58,2.05,5.89,4.8,6.9,8.83,.28,1.12,1.32,2.3,2.34,2.94,3.8,2.37,7.71,4.6,11.64,6.76,4.23,2.32,8.27,4.77,9.09,10.62,1.67-.82,2.88-1.33,4.02-1.98,11.13-6.41,22.19-12.93,33.37-19.23,18.5-10.44,38.06-14.65,59.01-9.16,3.38,.89,6.35,.87,9.73-.02,19.96-5.27,38.85-1.78,56.69,7.92,12.04,6.55,23.85,13.54,35.65,20.51,3.43,2.02,6.3,2.01,9.72-.02,11.67-6.95,23.47-13.69,35.23-20.5,.86-.5,1.72-1.01,2.59-1.49,3.87-2.13,7-1.56,8.74,1.56,1.64,2.94,.58,5.95-3.02,8.07-8.81,5.17-17.67,10.27-26.51,15.41-4.2,2.44-8.4,4.9-12.61,7.33-6.28,3.64-12.48,3.54-18.78-.11-12.62-7.31-25.19-14.71-37.99-21.68-10.81-5.89-22.52-8.65-34.91-8.08-.62,.03-1.25,.04-1.86,.12-.2,.02-.38,.22-1.09,.66,2.09,1.23,3.94,2.34,5.8,3.41,5.56,3.22,7.06,6.03,5.01,9.47-2.02,3.39-5.11,3.44-10.76,.17-2.48-1.43-5.02-2.78-7.45-4.3-21.5-13.45-43.29-12.38-64.99-.86-12.32,6.55-24.16,14-36.4,20.71-3.15,1.73-7.04,2.08-10.53,3.24-1.33,.44-3.04,1.05-3.67,2.12-15.12,25.96-30.12,51.99-45.14,78.01-.25,.43-.43,.89-.8,1.66,1.6,.97,3.24,1.83,4.73,2.89,1.84,1.3,3.38,1.27,5.41,.09,29.75-17.27,59.56-34.45,89.35-51.66,5.4-3.12,10.78-6.26,16.18-9.37,4.24-2.43,7.28-2.1,9.18,.94,1.94,3.11,.7,6.33-3.54,8.78-36.15,20.89-72.32,41.77-108.48,62.65-4.75,2.74-9.54,5.42-14.21,8.3-4.83,2.97-8.44,7.08-7.81,13.07,.72,6.77,3.91,12.41,10.29,15.51,5.14,2.5,10.02,.7,14.58-1.9,11.26-6.42,22.47-12.93,33.7-19.41,6.15-3.55,12.3-7.12,18.46-10.67,4.05-2.33,7.35-1.91,9.14,1.12,1.79,3.04,.55,6.22-3.44,8.53-14.56,8.43-29.14,16.84-43.71,25.26-1.72,1-3.48,1.98-5.07,3.17-4.74,3.53-7.69,8.06-6.08,14.16,1.82,6.93,5.26,12.8,13.04,14.37,4.56,.92,8.55-1.08,12.37-3.28,15.77-9.09,31.52-18.19,47.29-27.29,.97-.56,1.92-1.16,2.92-1.68,3.4-1.76,6.51-1.06,8.12,1.81,1.57,2.8,.64,6-2.61,7.92-8.37,4.94-16.81,9.77-25.23,14.64-1.51,.87-3.04,1.71-4.54,2.61-11.4,6.89-12.31,18.83-2.05,27.46,5.09,4.28,10.64,3.8,16.08,.91,6.38-3.39,12.59-7.11,18.86-10.7,4-2.29,8-4.59,11.98-6.92,4.49-2.62,8.69-5.38,12.37-9.35,7.88-8.49,18.07-8.42,28.48-5.67,2.75,.72,5.42,1.76,8.53,2.78-1.71-11.77,1.72-21.11,12.33-26.64,10.22-5.33,20.38-2.32,30.42,1.42-3.07-20.42,14.65-37.01,42.86-25.02,0-2.29-.18-4.63,.03-6.94,1.4-15.1,14.5-24.36,30.41-21.47,2.93,.53,6,1.07,8.62,2.37,3.84,1.91,6.75,1.12,10.25-1,11.3-6.84,22.83-13.31,34.28-19.9,5.11-2.94,6.92-2.62,10.44,1.8v3.74Zm-197.95,97.73l-.3,.92c-5.21-.15-9.64,1.34-12.37,6.11-2.8,4.9-2.19,9.93,1.17,14.01,3.52,4.27,7.49,8.5,12.09,11.46,8.99,5.78,18.46,10.84,27.91,15.88,8.82,4.71,16.24,2.26,21.08-6.48,4.79-8.66,2.87-16.05-6-21.23-9.03-5.27-18.16-10.41-27.53-15.04-5.04-2.49-10.67-3.79-16.04-5.63Zm45.81-24.3c-14.26-.03-20.2,9.93-14.53,19.39,1.82,3.04,4.13,6.25,7.04,8.1,11.63,7.42,23.49,14.5,35.46,21.35,3.94,2.26,8.45,1.99,12.51-.48,11.31-6.89,11.59-21.32,.37-28.15-8.4-5.11-16.87-10.17-25.65-14.57-5.69-2.85-11.99-4.49-15.19-5.65Zm91.76,5.84c.02-3.9-3.38-7.74-8.1-10.52-8.59-5.06-17.15-10.18-26-14.75-4.48-2.31-9.45-3.9-14.38-5.01-6.92-1.56-12.55,.85-15.35,5.78-3.31,5.85-1.73,11.35,2.33,15.87,3.62,4.03,7.78,7.81,12.32,10.74,8.15,5.27,16.66,10.01,25.21,14.62,11.57,6.23,23.8-1.38,23.96-16.73Zm-8.42-56.07c-5.41,.56-9.8,2.17-12.47,6.93-2.67,4.76-1.74,9.41,1.08,13.74,1.35,2.07,2.76,4.35,4.72,5.72,6.9,4.83,13.81,9.76,21.22,13.69,2.9,1.54,7.52,1.58,10.7,.45,6.51-2.3,9.55-8.1,10.58-14.69,.98-6.21-2.39-10.56-7.32-13.61-4.85-3-9.85-5.88-15.07-8.15-4.26-1.86-8.95-2.75-13.45-4.07Zm-154.61,90.43c-2.83,1.62-5.19,2.98-7.56,4.34-13.01,7.47-10.38,18.37-3,26.44,3.53,3.85,8.24,5.21,12.98,3.39,5.6-2.14,10.83-5.26,16.79-8.24-9.39-7.06-17.03-14.27-19.21-25.94Z"/><path class="b" d="M415.14,93.98c-3.41,2.39-6.75,4.9-10.26,7.13-3.56,2.26-7.25,4.33-10.97,6.33-3.33,1.79-6.47,1-8.1-1.83-1.62-2.82-.69-5.91,2.58-7.86,5.54-3.31,11.14-6.53,16.74-9.75,4.7-2.7,6.76-2.22,10,2.24v3.74Z"/><path class="b" d="M284.91,196.24c.65-10.81,1.37-21.61,1.94-32.43,.36-6.79-2.39-12.14-8.18-15.75-4.23-2.63-8.62-5-12.91-7.53-3.78-2.23-4.92-5.31-3.15-8.31,1.73-2.94,5.03-3.5,8.8-1.38,4.34,2.45,8.74,4.81,12.92,7.51,10.28,6.62,14.21,16,13.63,28.3-.75,16.03-.22,32.11-.28,48.17-.01,2.86,.13,5.8-.46,8.56-3.97,18.72-25.45,25.37-40.09,12.5-5.22-4.59-8.42-10.45-10.37-17.01-3.87-12.97-6.28-26.18-5.99-39.76,.06-2.61-.95-3.73-3.08-4.72-7.24-3.38-14.72-5.28-22.79-4.73-4.26,.29-6.99-2.04-6.78-5.57,.2-3.38,2.27-5.21,5.52-5.52,13.25-1.28,25.13,2.83,36.04,9.87,1.49,.96,2.28,4.12,2.22,6.22-.42,13.6,1.29,26.91,5.4,39.82,1.36,4.27,3.71,8.47,6.52,11.97,3.92,4.87,10.16,6.05,15.24,3.79,5.62-2.5,7.68-7.18,7.46-13.04-.26-6.98-.62-13.95-.94-20.93l-.69-.04Z"/></svg>