<?xml version="1.0" encoding="UTF-8"?><svg xmlns="http://www.w3.org/2000/svg" viewBox="0 0 3218.56 607.32"><defs><style>.e{fill:#faebe9;}.f{fill:none;}</style></defs><g id="a"/><g id="b"><g><path class="e" d="M371.25,222.25c.32,18.35-2.94,24.49-14.31,29.04-15.49,6.19-30.02,3.81-39.11-7.08-14.58-17.47-20.24-38.71-23.63-60.49-2.35-15.08-7.79-28.29-15.55-41.5-10.5-17.88-19.04-37.03-27.02-56.21-4.41-10.61-4.06-22.05,6.17-30.49,11.26-9.29,23.76-12.86,37.9-7.37,14.33,5.56,23.58,15.93,27.42,30.68,3.86,14.79,6.18,30.02,10.77,44.56,3.5,11.08,7.75,22.71,14.71,31.76,15.9,20.68,21.78,43.9,22.64,67.11Z"/><path class="e" d="M279.87,266.96c-.47,14.64-6.37,25.01-16.43,31.87-3.81,2.6-11.6,2.14-16.32,.13-22.32-9.49-37.95-25.98-44.49-49.51-5.25-18.87-16.36-33.15-29.52-47.07-11.31-11.96-22.01-25.3-29.56-39.81-9.63-18.52-4.43-32.4,11.23-40.96,18.51-10.13,39.29-7.32,49.25,8.9,6.59,10.73,9.8,23.56,14.23,35.56,1.56,4.21,2.57,8.68,3.3,13.12,2.61,15.84,11.73,25.41,26.31,32.18,23.98,11.13,27.85,34.59,32,55.6Z"/><path class="e" d="M645.11,285.96c-3.11,30.77-16.64,62.14-46.86,84.64-5.67,4.22-7.77,8.6-7.53,15.59,1.01,28.81-8.28,54.22-27.72,75.44-15.52,16.94-30.86,34.26-48.09,49.36-24.49,21.46-53.85,33.66-86.7,33.6-17.73-.04-34.09,3.22-48.97,11.91-28.01,16.35-72.37,3.6-89.91-23.39-9.09-13.99-17.29-28.57-26.26-42.65-6.16-9.67-11.97-19.82-19.64-28.2-15.05-16.46-26.25-34.96-34.39-55.55-1.4-3.55-3.33-6.89-5.02-10.32-3.78-7.67-8.43-12.08-18.48-10.59-7.56,1.12-16.25-.21-23.48-2.97-31.29-11.96-61.05-26.71-87.55-47.88-21.39-17.09-14.93-39.24,7.85-46.94,19-6.42,37.4-6.47,51.91,9.83,8.21,9.23,18.66,11.44,29.84,12.63,19.98,2.14,38.95,7,55.78,18.71,11.03,7.67,22.51,7.2,32.87-1.2,14.03-11.38,27.68-23.24,41.25-35.18,6-5.28,11.28-11.38,17.1-16.88,11.36-10.73,24.44-16.64,40.59-15.66,13.55,.82,27.22,1.1,40.73,.19,6.96-.47,14.03-3.34,20.45-6.39,6.99-3.32,9.75-9.83,7.98-17.55-6.61-28.81-5.25-57.36,2.59-85.71,3.98-14.37-1.38-27.44-5.44-40.69-5.48-17.87-4.94-35.02,5.75-51.02,13.69-20.5,34.05-20.75,48.79-.42,11.37,15.69,15.84,33.83,12.85,52.49-3.84,23.98-5.5,46.88,2.19,70.88,6.31,19.71-1.62,39.24-11.42,56.91-4.74,8.54-4.93,15.02,1.01,23.54,4.25,6.09,5.4,14.93,6.18,22.72,1.14,11.41,.48,22.98,1,34.46,.77,16.86,27.21,38.47,43.58,34.5,5.55-1.34,11.41-6.81,14.38-11.97,3.69-6.41,5.04-14.37,6.51-21.83,5.07-25.74,17.75-46.78,38.85-62.21,5.94-4.34,13.5-7.36,20.76-8.81,23.41-4.67,36.7,6.85,36.66,36.59Zm-288.71,73.81c-6.58-1.53-12.24-3.14-18.01-4.13-30.25-5.17-53.61,17.92-49.31,48.33,2.66,18.78,13.62,31.71,28.99,41.21,32.7,20.22,70.03,25.11,109.14,33.02,8.47-26.93,17.87-52.74,24.5-79.23,4.88-19.5,3.76-39.66-8.32-57.26-10.52-15.33-25.1-24.3-44.07-23.24-19.21,1.08-30.46,13.57-38.31,29.8-1.65,3.42-2.85,7.05-4.61,11.49Z"/><g><path id="c" class="f" d="M459.4,338.25c7.31,13.91,9.31,28.88,6.26,44.6-3.1,15.95-8.36,31.16-14.57,46.08-7.2,17.29-15.48,34.07-22.89,51.26-.61,3.04-.98,3.77-2.71,3.58-24.98-2.71-49.71-6.99-74.27-12.43-9.72-2.15-19.45-4.3-28.81-7.86-10.22-3.89-19.47-9.34-26.93-17.53-10.33-11.36-16.43-24.59-16.83-40.07-.25-9.75,2.61-18.82,6.77-27.46,3.37-7,7.95-13.08,14.09-17.89,7-5.47,15.02-8.34,23.8-9.3,10.09-1.1,19.96,.29,29.73,2.9,1.15,.31,2.32,.59,3.44,1.01,.87,.33,1.09,.04,1.29-.77,2.27-9.39,6.08-18.07,11.67-25.92,5.25-7.36,11.69-13.33,19.91-17.25,8.39-4,17.27-4.89,26.39-3.8,15.48,1.86,27.87,9.37,37.6,21.58,2.23,2.79,4.14,5.8,6.07,9.26Zm-156.09,92.4c1.88,1.12,3.5,2.74,5.78,3.08-1.73-1.55-3.91-2.32-5.84-3.53-.5-.56-1.27-.91-1.42-1.8,1.39-.36,2.55,.22,3.66,.85,1.85,1.06,3.69,2.13,5.83,2.56,1.59,.99,2.99,2.26,4.48,3.39,1.17,.89,2.44,1.61,3.93,1.62,1.17,0,2.44,.05,3.24-1.04,1.38-1.9,1.74-2.06,4.02-1.35,1.54,.48,3.02,.68,4.62-.35,1.49,.33,2.86,.97,4.26,1.55,1.95,1.05,3.29,.81,4.32-.8,.16-.24,.53-.56,.19-.81-.41-.3-.63,.15-.84,.44-1.51,2.08-2.2,2.11-3.93,.17-.46-.93-.87-1.88-1.38-2.78-.7-1.24-1.45-1.42-2.63-.71-.42,.25-.82,.54-1.26,.76-.99,.49-1.56,.25-1.81-.85-.2-.88-.23-1.8-.38-2.69-.08-.5,.03-1.19-.69-1.3-.73-.11-1.12,.42-1.35,1.03-.62,1.66-.99,3.42-2.16,4.84-1.73,.03-3.53-.26-4.65-1.55-2.21-2.57-2.71-5.49-1.81-8.69,.16-.57,.56-.99,.98-1.38,1.35-1.27,2.94-2.2,4.55-3.11,1.72-.97,3.29-1.02,4.83,.45,.78,.74,1.7,1.38,2.99,1.46-.67-1.36-1.76-2.22-2.57-3.3-.72-.96-1.57-1.94-1.17-3.25,.41-1.34,.36-2.68,.23-4.04-.13-1.4-.29-2.79-.4-4.19-.04-.53-.12-1.12,.34-1.51,1.29-1.1,1.58-2.64,1.85-4.19,.22-1.26,.32-2.54,.72-3.76,.32-.96,.79-1.81,1.68-2.34,.26-.15,.53-.49,.86-.28,.28,.18,.13,.54,.12,.81-.02,.56-.16,1.12,.18,1.8,1.16-1.14,1.76-2.4,1.92-3.9-1.05,.7-2.13,.78-3.26,.57-1.47-.27-1.73-.74-1.17-2.1-1.45-.28-1.86,1.22-2.89,1.77-.12-1.15,.25-2.03,.9-2.81,.88-1.06,2.02-1.78,3.14-2.53,1.34-.89,2.61-1.84,3.35-3.34,.16-.33,.41-.71,.21-1.05-.26-.43-.76-.28-1.13-.17-1.09,.33-2.15,.72-3.4,1.15,.29-.51,.49-.85,.68-1.2,.19-.35,.65-.73,.48-1.06-.24-.46-.84-.26-1.25-.16-1.73,.42-3.13-.17-4.4-1.33-.67-.61-1.4-1.16-2.31-1.4-.67-.18-1.1-.17-1.05,.74,.03,.52-.12,1.06-.24,1.58-.12,.48-.3,1-.84,1.12-.56,.13-.9-.31-1.22-.68-1.77-2.02-5.02-2.49-7.24-1.05-.63,.41-.88,.86-.23,1.47,.46,.43,.61,1.01,.64,1.58,.07,1.42,.7,2.24,2.15,2.37,.74,.07,.98,.45,.95,1.25-.08,2.19,.13,4.37,.55,6.53,.08,.4,.68,.82,.14,1.19-.54,.38-1.14,.13-1.58-.28-.69-.65-1.31-1.37-1.97-2.05-1.6-1.64-3.5-.25-8.29,3.5,.49-4.23-.93-2.01-1.56-2.89-.54-.76-1.38-1.02-2.17-1.35-1.59-.67-1.9-1.31-1.5-3.02,.33-1.41,1.04-2.68,1.53-4.03,.27-.73,.61-1.49,.32-2.28-.28-.74-1.11-.73-1.88-1.02,.98-.53,1.81-.99,2.2-1.9,.38-.88,1.06-1.43,1.84-1.91,1.12-.7,1.37-1.41,.86-2.44-.56-1.14-2.02-1.91-2.95-1.52-.31,.13-.81,.34-.48,.77,.77,.99,.4,1.97,.12,2.94-.16,.57-.27,1.55-.79,1.52-.67-.04-.83-.99-1.08-1.63-.09-.24,.12-.67-.31-.7-.4-.03-.66,.27-.86,.6-.25,.4-.03,.85-.08,1.35-1.87-.87-3.59-1.72-5.45-2.45-.59,.14-1.96-.54-2.05,.69-.05,.71,.24,1.07,.99,1.07,1.04,0,2.13,.41,2.98,.57,.73,1.23,.54,2.49,.29,3.71-.2,1-.55,1.12-1.36,.47-.22-.18-.42-.4-.57-.65-.21-.34-.36-.36-.65-.07-1.52,1.54-3.48,2.26-5.5,2.85-1.49,.44-2.14,.81-1.05,2.51,.16,.25,.29,.59,.08,.81-.25,.25-.53-.04-.77-.16-.65-.35-.92-.09-1.13,.56-3.16,9.58-4.1,19.28-1.65,29.25,.44,1.81,1.19,3.05,2.79,4.05,5.09,3.18,9.76,7.13,15.78,8.57,.71,.17,1.37,.56,2.05,.84Zm142.52-75.39c.03-.1,.07-.21,.1-.31,.15-.58,.05-1.39,.72-1.6,.76-.23,1.16,.52,1.53,1.03,1.18,1.65,2.28,3.35,3.45,5.01,1.34,1.91,2.63,3.89,5.49,4.3,.5-2.45-.07-4.71-1.29-6.67-.54-.86-.68-1.69-.31-2.58,.68-1.6,1-3.29,1.38-4.98,.36-1.64,.8-3.33,2.17-4.46,.53-.44,.56-.69,.3-1.28-2.48-5.57-5.72-10.67-9.75-15.21-10.5-11.82-23.52-18.31-39.27-18.94-.44-.02-.9-.15-1.32,.11-2.68,1.63-5.99,2.44-7.36,5.76-.05,.11-.13,.21-.22,.3-.35,.34-.65,.74-1.2,.78-.6,.04-.68-.56-1.06-.98-.32,1.29-.71,2.39-.84,3.52-.23,1.94-1.09,3.18-3.08,3.46-.04,0-.07,.11-.14,.23l1.11,.49c-2.11,.39-4.04-.09-5.91-.89-.23-.1-.48-.27-.44-.53,.02-.13,.28-.25,.45-.33,.26-.12,.54-.2,.8-.3,1.68-.66,3.31-1.43,4.77-2.51,.35-.26,.78-.57,.66-1.1-.13-.54-.65-.57-1.09-.66-1.11-.22-2.2-.1-3.28,.17-1.76,.44-3.37,1.25-5.04,1.91-.64,.26-1.25,.36-1.88,0-.89-.51-1.74-.35-2.56,.15-2.66,1.6-4.54,3.83-5.47,6.84-.58,1.86-.85,3.78-.99,5.72-.12,1.6-.58,3.06-1.29,4.47-2.08,4.14-2.32,3.16,1.15,6.91,1.13-1.14,1.52-2.6,2.01-4.01,1.54,1.79,3.25,3.32,5.45,4.67,.03-2.24,.06-4.33,.08-6.43,0-.33-.12-.64-.48-.8-1.03-.48-1.2-1.39-1.16-2.39,.1-2.31,.72-4.49,1.72-6.58,.47-.42,1.31-1.5,2.15-1,.65,.39,0,.95-.11,1.4-.4,1.56-.96,3.09-.4,4.73,.6,1.74,2.32,2.24,3.71,1.09,.66-.55,1.28-1.14,1.92-1.72,.52-.47,1.15-.65,2.03-.78-.41,.71-.87,1.02-1.3,1.37-.89,.72-1.87,1.32-2.61,2.22-.36,.44-.54,.72,.17,1.09,1.17,.62,1.16,.84,.1,1.57-.9,.62-1.16,1.31-.55,2.3,.4,.65,.32,1.34,.06,2.03-.88,2.29-5.68,5.3-8.27,4.46,0,1.81-.7,3.38-1.5,4.92-1.23,2.38-2.75,4.57-4.45,6.62-.46,.56-.39,.74,.24,1.02,.78,.35,1.55,.78,2.26,1.26,1.17,.8,1.2,1.43,.16,2.34-.74,.65-1.49,1.28-2.28,1.87-1.18,.89-1.45,2.05-.95,3.4,.83,2.23,2.52,3.7,5.12,4.22,1.88-1.05,3.43-2.77,3.03-4.93-.34-1.84,.04-3.28,.88-4.9,2.52-4.82,8-5.64,11.65-1.6,.15,.17,.26,.5,.56,.31,.21-.13,.32-.39,.25-.65-.1-.4-.45-.88-.32-1.16,.47-1.04-.33-1.03-.89-1.23-1.79-.64-3.59-1.22-5.27-2.13-.38-.2-1-.37-.85-.9,.23-.84,1.85,.15,1.55-.92,2.58,.83,4.87,2.27,7.28,3.44,1.24,.6,2.53,.92,3.92,.47-.17-.39-.52-.43-.78-.61-.5-.34-.99-.76-.8-1.4,.27-.88,1.02-1.39,1.81-1.74,.71-.32,.74,.5,.99,.83,1.61,2.16,3.44,2.64,5.81,1.38,.75-.4,1.51-.86,2.13-1.44,.75-.7,1.09-.38,1.41,.36,.54,1.25,1.1,2.5,1.62,3.76,.94,2.28,1.99,4.51,4.28,5.75,1.82,.98,3.5,2.17,5.23,3.3,2.1,1.38,4.16,2.84,6.41,3.97,.41,.2,.81,.55,1.3-.02,2.75-3.21,5.21-6.55,5.59-11,.1-1.2-.12-2.06-1.3-2.62-.81-.39-1.52-1.01-2.29-1.54-.17,2.33-1.44,3.28-3.64,2.56-1.59-.52-2.99-1.53-4.53-2.2-.71-.31-1.25-1.17-.83-1.98,.44-.84,1.33-.65,2.09-.33,.64,.27,1.21,.72,1.92,.82,2.84,.38,5.63,.54,8.25-.97,3.38-1.96,6.73-2.19,9.94,.51,.06,.05,.16,.05,.26,.07Zm-32.12,7.38c-.49-.94-.71-2.06-1.93-1.72-3.23,.9-6.43,1.92-9.29,3.76-.62,.4-1.2,.92-.99,1.69,.39,1.41-.43,1.54-1.42,1.56-2.07,.05-4.15-.54-6.21,.21-.68,.25-1.16-.25-1.19-1.02-.01-.33,0-.66-.04-.99-.1-1.08-.57-1.43-1.66-1.22-.87,.17-1.57,.66-2.27,1.18-2.18,1.61-3.89,3.74-5.98,5.44-1.98,1.61-2.8,3.67-2.56,6.19,.17,1.84-.17,3.6-.72,5.35-.57,1.8-1.12,3.63-1.1,5.56,.01,1.06,.15,2.26,1.22,2.67,1.85,.72,2.37,2.24,2.93,3.87,.45,1.32,.85,2.7,2.2,3.48,2.26,1.29,4.58,2.44,6.99,3.43,1.92,.79,3.34,.19,4.51-1.85,4.48-5.17,4.2-5.93,7.81-4.57,.63,.24,1.27,.48,1.9,.19,2.53-1.18,2.94,2.79,4.82,7.89,2.32-2.38,3.59-1.28,4.6-.19,1.91,2.06,3.7,4.17,3.19,7.29-.16,1,.35,1.71,1.12,2.33,2.92,2.36,6.06,4.44,8.83,6.99,1.43,1.32,2.79,2.7,3.56,4.55,.66,1.59,1.13,1.76,2.61,.95,.46-.26,.9-.57,1.33-.88,3.09-2.24,4-5.46,3.95-9.1-.03-1.69-.25-3.4,.15-5.06,.31-1.28-.19-2.13-1.15-2.89-1.72-1.38-1.76-1.54-.83-3.51,1.28-2.7,1.28-5.19-.89-7.54-3.51-3.83-4.23-8.27-2.81-13.16,.42-1.46,.79-2.95,1.1-4.44,.52-2.49,.43-4.99-.7-7.43-1.02,.61-1.74,1.57-2.62,2.34-.97,.83-2.04,1.17-3.29,.58-1.23-.58-2.51-1.06-3.71-1.7-4.49-2.39-8.72-5.17-12.27-8.89-.44-.46-.84-.96-1-1.66,.66-.16,1.12,.17,1.8,.31Zm-34.09,110.32q1.35,2.65,3.66,3.06c.93,.17,1.87,.29,2.79,.5,.77,.18,.95-.2,.93-.84-.03-.99-.39-1.86-.97-2.64-.72-.96-.93-2.01-.63-3.16,.3-1.15-.04-2.1-.83-2.96-1.04-1.14-.96-1.39,.48-1.77,.93-.25,1.42-.87,.99-1.81-.19-.42-.05-.62,.12-.86,.38-.53,.8-1.04,1.2-1.55,1.36-1.77,1.27-2.32-.58-3.53-.24-.16-.49-.31-.74-.45-.58-.34-.41-.62,.06-.86,1.09-.55,2.43,.15,3.37-1.15,.23-1.11-.64-2.48-.14-3.62,.88-1.98,.37-3.86-.24-5.76-.91-2.84-.35-5.17,2.19-6.93,1.32-.91,1.7-2.27,1.17-3.83-.21-.63-.43-1.26-.75-1.83-1.02-1.82-1.49-3.7-1.31-5.81,.15-1.79,.13-3.63-.47-5.39-.34-.99-.94-1.49-2.03-1.38-1.28,.13-2.49,.47-3.67,.91-1.28,.48-2.57,.84-3.95,.41-1.67-.52-3.06-.25-4.04,1.32-.17,.26-.47,.46-.75,.62-1.58,.92-1.18-.2-1.02-4.42-3.28,.25-6.42,.41-9.55-.32-4.16-.97-8.01-.52-11.2,2.59-.58,.56-.62-.01-.85-.29-.2-.25-.37-.61-.76-.52-.31,.08-.38,.42-.43,.7-.4,2.23-.86,4.46-.61,6.74,.27,2.46,.83,4.88,1.34,7.31,.54,2.56,2.34,4.16,5.75,4.39,2.07,3.73,4.52,6.18,8.18,5.59,1.43-.23,2.64,.33,3.67,1.37,.73,.75,1.33,1.58,1.84,2.49,1.89,3.36,2.8,7.07,3.74,10.75,1.17,4.56,1.93,9.24,4.04,12.92Zm-65.99-104.5c.26-.39,.43-.62,.58-.86,.68-1.14,.42-1.64-.93-1.73-.4-.03-.82,.01-1.22,.05-2.17,.21-4.28,.75-6.29,1.54-1.94,.76-3.76,1.41-5.84,.41-.9-.43-1.08,.25-.82,.98,.23,.62,.58,1.19,.89,1.77,.16,.3,.33,.64,.09,.92-.27,.31-.69,.23-1.04,.09-.86-.35-1.42-.99-1.63-1.89-.11-.5-.33-.9-.75-.38-.63,.78-1.44,1.66-1.01,2.76,.38,.98,1.43,.77,2.27,.8,.28,0,.57-.03,.85-.07,2.29-.3,4.42-1.1,6.58-1.87,2.7-.96,5.5-1.63,8.27,1.08,.17-.98,2.42,.21,3.13-.89,.56-.87,1.22-.74,1.99-.64,.49,.06,.98,.12,1.47,.09,.54-.03,1.32,.13,1.34-.68,.02-.7-.45-1.27-1.2-1.36-.77-.09-1.55-.11-2.32-.13-1.42-.03-2.83,.22-4.42,.02Zm133.41,27.2c-.26-.48-.41-.83-.62-1.13-.18-.25-.26-.69-.66-.63-.32,.05-.31,.45-.39,.7-.77,2.28-1.27,4.6-1.12,7.03,.09,1.41,.33,2.8,1.35,3.9,.66,.71,1.43,1.47,2.44,1.1,.93-.34,.92-1.39,.92-2.25,.03-3.1-.78-6.04-1.91-8.73Zm-134.92-19.94c2.12,.36,4.11,.45,6.11,.32,.56-.03,1.61,.3,1.61-.46,0-.61-1.06-.48-1.68-.57-.05,0-.08-.1-.15-.19,.44-.65,1.18-.39,1.77-.55,.42-.12,.79-.33,.83-.79,.04-.52-.43-.57-.77-.62-2.09-.29-4.16-.27-6.19,.37-.4,.13-.82,.27-.76,.8,.07,.66-.3,1.14-.75,1.69Zm23.4,9.08c-.47,1.29-.68,2.49-.67,3.73,0,1.17,.67,.6,2.32-.81,1.67-.41,1.71-.85,1.33-1.48-.42-.71-1.07-1-1.78-.65-.85,.42-1.09,.07-1.2-.79Zm1.74,37.87c-2.62-1-6.18-.65-7.21,1.4,2.25-.41,4.48-.81,6.71-1.22,.11-.02,.22-.07,.5-.18Zm-42.05-54.85l.2,.27c1.61-.84,2.98-1.99,4.22-3.33,.23-.25,.78-.51,.47-.88-.41-.49-.9-.15-1.26,.21-1.22,1.23-2.42,2.48-3.63,3.72Zm-9.19,15.5c.9-.06,1.68-.4,1.95-.75,.42-.53-.19-.67-.35-.99-.19-.39,.2-.45,.39-.63,.2-.18,.49-.33,.39-.66-.03-.1-.27-.14-.42-.19-.39-.14-.6,.03-.75,.39-.39,.93-.8,1.85-1.23,2.82Zm53.66,39c.98,.46,1.74,.83,2.62,.79,.6-.03,.87-.4,.78-.99-.05-.33,0-.88-.55-.73-.88,.25-1.85,.22-2.84,.93Zm-46.03-51.93c-.13-.03-.31-.11-.46,.11-.71,1.03-1.45,2.05-2.13,3.1-.3,.48,.2,.53,.48,.6,.34,.08,.94,.16,.81-.35-.31-1.28,.47-1.98,1.16-2.77,.14-.16,.41-.32,.14-.69Zm9.01-4.72c-.17,.24-1.13,.23-.67,.83,.53,.68,1.36,.24,2.01-.1,.41-.21,.9-.64,.63-1.04-.42-.61-1.02-.08-1.53,.08-.11,.04-.22,.11-.43,.23Zm-9.8,14.42c.01-.26,.74-.2,.39-.65-.35-.46-.93-.75-1.53-.46-.42,.21-.74,.73-.48,1.12,.41,.6,1.01,.23,1.61-.01Zm37.69,20.84c-.15-.21-.3-.52-.56-.34-.45,.33-.65,.85-.5,1.4,.08,.31,.44,.46,.68,.24,.38-.33,.56-.79,.37-1.31Z"/><g id="d"><path class="e" d="M445.84,355.26c-.11-.03-.21-.03-.26-.07-3.21-2.69-6.56-2.46-9.94-.51-2.62,1.52-5.41,1.36-8.25,.97-.71-.1-1.28-.54-1.92-.82-.75-.32-1.65-.5-2.09,.33-.42,.8,.11,1.67,.83,1.98,1.55,.67,2.94,1.68,4.53,2.2,2.2,.72,3.47-.23,3.64-2.56,.77,.53,1.48,1.15,2.29,1.54,1.19,.56,1.4,1.43,1.3,2.62-.38,4.46-2.84,7.79-5.59,11-.48,.56-.89,.22-1.3,.02-2.25-1.13-4.31-2.59-6.41-3.97-1.73-1.13-3.41-2.32-5.23-3.3-2.3-1.24-3.34-3.47-4.28-5.75-.52-1.26-1.08-2.51-1.62-3.76-.32-.74-.66-1.06-1.41-.36-.62,.58-1.38,1.03-2.13,1.44-2.36,1.26-4.2,.79-5.81-1.38-.25-.34-.28-1.15-.99-.83-.78,.35-1.54,.86-1.81,1.74-.2,.65,.29,1.06,.8,1.4,.26,.17,.61,.22,.78,.61-1.39,.45-2.68,.13-3.92-.47-1.37-.67-2.7-1.42-4.07-2.1-1.12-.56-2.32-.87-3.58-.8-.42,.02-1.05-.12-1.19,.37-.15,.53,.48,.7,.85,.9,1.68,.91,3.48,1.5,5.27,2.13,.56,.2,1.35,.19,.89,1.23-.12,.28,.22,.76,.32,1.16,.07,.26-.04,.52-.25,.65-.3,.18-.41-.15-.56-.31-3.64-4.04-9.12-3.22-11.65,1.6-.85,1.62-1.22,3.07-.88,4.9,.32,1.74-.62,3.2-1.99,4.25-.8,.61-1.79,.57-2.7,.17-1.67-.73-2.82-2-3.45-3.71-.5-1.35-.23-2.5,.95-3.4,.78-.59,1.54-1.22,2.28-1.87,1.04-.91,1.01-1.54-.16-2.34-.71-.49-1.48-.91-2.26-1.26-.62-.28-.7-.46-.24-1.02,1.7-2.05,3.21-4.25,4.45-6.62,.8-1.54,1.51-3.11,1.5-4.92,2.59,.84,7.39-2.17,8.27-4.46,.26-.68,.35-1.38-.06-2.03-.61-.98-.35-1.67,.55-2.3,1.06-.73,1.06-.95-.1-1.57-.7-.38-.53-.65-.17-1.09,.74-.9,1.72-1.51,2.61-2.22,.43-.35,.89-.67,1.3-1.37-.89,.13-1.51,.31-2.03,.78-.64,.57-1.26,1.17-1.92,1.72-1.38,1.15-3.11,.64-3.71-1.09-.56-1.63,0-3.17,.4-4.73,.12-.45,.77-1.01,.11-1.4-.59-.36-1.18,.07-1.65,.51-.46,.43-.74,.98-.98,1.55-.72,1.76-1.17,3.6-1.25,5.52-.04,1,.13,1.91,1.16,2.39,.36,.17,.48,.47,.48,.8-.01,2.09-.05,4.19-.08,6.43-1.89-1.16-3.42-2.46-4.79-3.94-.5-.54-.71-.55-.96,.15-.37,1.09-.79,2.16-1.64,3.05-.09-.05-.21-.08-.28-.16-3.25-3.48-2.97-2.63-.94-6.68,.71-1.41,1.17-2.88,1.29-4.47,.14-1.94,.42-3.85,.99-5.72,.93-3.01,2.81-5.24,5.47-6.84,.82-.5,1.67-.66,2.56-.15,.63,.36,1.24,.26,1.88,0,1.67-.66,3.29-1.47,5.04-1.91,1.08-.27,2.17-.39,3.28-.17,.44,.09,.96,.12,1.09,.66,.12,.53-.31,.84-.66,1.1-1.46,1.08-3.08,1.85-4.77,2.51-.27,.1-.55,.18-.8,.3-.17,.08-.43,.2-.45,.33-.03,.26,.21,.43,.44,.53,1.87,.8,3.8,1.28,5.91,.89l-1.11-.49c.07-.12,.1-.22,.14-.23,2-.28,2.86-1.53,3.08-3.46,.13-1.13,.52-2.23,.84-3.52,.38,.42,.46,1.02,1.06,.98,.56-.04,.86-.44,1.2-.78,.09-.08,.17-.18,.22-.3,1.37-3.31,4.68-4.13,7.36-5.76,.42-.26,.88-.13,1.32-.11,15.75,.63,28.78,7.12,39.27,18.94,4.04,4.55,7.27,9.64,9.75,15.21,.26,.59,.24,.84-.3,1.28-1.36,1.12-1.81,2.81-2.17,4.46-.37,1.69-.7,3.38-1.38,4.98-.38,.89-.23,1.71,.31,2.58,.86,1.38,1.4,2.92,1.46,4.56,.06,1.6-.91,2.19-2.31,1.39-1.48-.84-2.41-2.24-3.36-3.59-1.16-1.66-2.27-3.36-3.45-5.01-.37-.51-.77-1.27-1.53-1.03-.67,.2-.57,1.01-.72,1.6-.03,.11-.07,.21-.1,.31Z"/><path class="e" d="M413.72,362.64c-.68-.14-1.14-.47-1.8-.31,.16,.7,.55,1.2,1,1.66,3.55,3.73,7.77,6.5,12.27,8.89,1.2,.64,2.48,1.12,3.71,1.7,1.25,.59,2.32,.25,3.29-.58,.56-.48,1.05-1.04,1.59-1.54,.75-.7,1.18-.6,1.5,.39,.67,2.06,.67,4.15,.23,6.24-.31,1.49-.68,2.97-1.1,4.44-1.42,4.88-.7,9.33,2.81,13.16,2.16,2.36,2.17,4.84,.89,7.54-.93,1.97-.89,2.13,.83,3.51,.95,.77,1.46,1.62,1.15,2.89-.4,1.66-.18,3.37-.15,5.06,.06,3.64-.86,6.86-3.95,9.1-.43,.31-.86,.62-1.33,.88-1.48,.82-1.95,.65-2.61-.95-.77-1.85-2.13-3.23-3.56-4.55-2.77-2.55-5.91-4.63-8.83-6.99-.76-.62-1.28-1.33-1.12-2.33,.51-3.12-1.28-5.23-3.19-7.29-.31-.33-.64-.67-1.02-.9-2.53-1.57-4.59-3.61-6.22-6.1-.55-.84-1.21-1.15-2.18-.7-.63,.29-1.27,.05-1.9-.19-2.62-.99-3.19-.86-5.01,1.25-1.17,1.36-2.27,2.79-3.39,4.2-1.06,1.32-2.32,1.63-3.92,.97-2.41-.99-4.73-2.14-6.99-3.43-1.36-.77-1.75-2.16-2.2-3.48-.56-1.63-1.08-3.15-2.93-3.87-1.06-.41-1.2-1.61-1.22-2.67-.02-1.93,.53-3.75,1.1-5.56,.55-1.75,.89-3.5,.72-5.35-.24-2.53,.58-4.58,2.56-6.19,2.09-1.7,3.8-3.83,5.98-5.44,.69-.51,1.39-1.01,2.27-1.18,1.08-.21,1.55,.13,1.66,1.22,.03,.33,.03,.66,.04,.99,.03,.78,.51,1.27,1.19,1.02,2.06-.75,4.14-.16,6.21-.21,.99-.02,1.81-.15,1.42-1.56-.21-.77,.37-1.29,.99-1.69,2.86-1.84,6.06-2.86,9.29-3.76,1.21-.34,1.44,.78,1.93,1.72Z"/><path class="e" d="M335.87,435.66c-.84-.34-1.66-.71-2.51-1.02-.83-.3-1.72-.45-2.53-.12-1.31,.54-2.55,.34-3.84-.06-2.28-.71-2.63-.55-4.02,1.35-.8,1.09-2.07,1.05-3.24,1.04-1.49,0-2.76-.74-3.93-1.62-1.02-.77-1.99-1.61-3.01-2.38-.63-.47-1.27-.95-2.04-1.15-1.9-.49-3.57-1.46-5.26-2.43-1.11-.64-2.27-1.21-3.66-.85,.15,.89,.92,1.23,1.42,1.8l.05,.44c-.68-.29-1.34-.67-2.05-.84-6.02-1.44-10.69-5.39-15.78-8.57-1.6-1-2.35-2.24-2.79-4.05-2.44-9.97-1.51-19.67,1.65-29.25,.21-.64,.48-.9,1.13-.56,.24,.12,.52,.42,.77,.16,.22-.22,.08-.56-.08-.81-1.08-1.7-.43-2.07,1.05-2.51,2.01-.59,3.97-1.31,5.5-2.85,.28-.29,.44-.26,.65,.07,.15,.24,.35,.47,.57,.65,.81,.65,1.16,.53,1.36-.47,.09-.44,.17-.89,.21-1.34,.12-1.62-.43-2.37-2.02-2.74-.48-.11-.97-.2-1.46-.2-.75,0-1.04-.35-.99-1.07,.06-.77,.61-.79,1.16-.73,.99,.1,1.92,.46,2.82,.86,1.16,.52,2.3,1.07,3.51,1.63,.04-.5-.17-.94,.08-1.35,.2-.33,.46-.63,.86-.6,.43,.03,.22,.46,.31,.7,.25,.64,.41,1.59,1.08,1.63,.52,.03,.62-.94,.79-1.52,.28-.98,.65-1.96-.12-2.94-.33-.43,.17-.64,.48-.77,.92-.39,2.39,.39,2.95,1.52,.51,1.03,.26,1.75-.86,2.44-.78,.48-1.46,1.04-1.84,1.91-.39,.91-1.21,1.38-2.2,1.9,.78,.28,1.6,.27,1.88,1.02,.3,.79-.05,1.55-.32,2.28-.5,1.35-1.2,2.62-1.53,4.03-.4,1.71-.09,2.35,1.5,3.02,.8,.34,1.63,.6,2.17,1.35,.24,.33,.59,.22,.91,.19,2.24-.26,4.47-.6,6.61-1.32,.96-.32,1.68-.16,2.34,.52,.66,.68,1.28,1.4,1.97,2.05,.44,.41,1.04,.66,1.58,.28,.54-.37-.06-.8-.14-1.19-.43-2.16-.64-4.34-.55-6.53,.03-.8-.21-1.18-.95-1.25-1.45-.14-2.08-.95-2.15-2.37-.03-.57-.18-1.15-.64-1.58-.65-.61-.4-1.06,.23-1.47,2.22-1.44,5.47-.97,7.24,1.05,.33,.37,.66,.82,1.22,.68,.54-.13,.72-.64,.84-1.12,.12-.52,.27-1.06,.24-1.58-.05-.91,.38-.92,1.05-.74,.91,.24,1.63,.79,2.31,1.4,1.27,1.16,2.67,1.74,4.4,1.33,.4-.1,1-.29,1.25,.16,.17,.33-.28,.71-.48,1.06-.19,.35-.39,.69-.68,1.2,1.25-.43,2.32-.82,3.4-1.15,.37-.11,.87-.25,1.13,.17,.21,.34-.05,.72-.21,1.05-.73,1.5-2.01,2.45-3.35,3.34-1.12,.75-2.26,1.47-3.14,2.53-.65,.79-1.02,1.66-.9,2.81,1.04-.55,1.44-2.04,2.89-1.77-.56,1.37-.3,1.83,1.17,2.1,1.13,.21,2.21,.13,3.26-.57-.16,1.51-.77,2.76-1.92,3.9-.34-.68-.2-1.24-.18-1.8,0-.28,.16-.64-.12-.81-.33-.22-.6,.12-.86,.28-.89,.53-1.37,1.39-1.68,2.34-.4,1.22-.5,2.5-.72,3.76-.27,1.55-.56,3.09-1.85,4.19-.46,.39-.38,.98-.34,1.51,.11,1.4,.27,2.79,.4,4.19,.13,1.36,.18,2.7-.23,4.04-.4,1.31,.45,2.29,1.17,3.25,.81,1.08,1.89,1.94,2.57,3.3-1.29-.08-2.21-.71-2.99-1.46-1.54-1.47-3.11-1.42-4.83-.45-1.61,.91-3.19,1.83-4.55,3.11-.42,.39-.82,.81-.98,1.38-.9,3.2-.39,6.12,1.81,8.69,.61,.71,1.43,1.11,2.33,1.33,1.71,.42,2.77-.09,3.45-1.71,.4-.95,.67-1.94,1.03-2.9,.23-.61,.62-1.14,1.35-1.03,.71,.11,.61,.8,.69,1.3,.15,.89,.18,1.81,.38,2.69,.25,1.1,.82,1.34,1.81,.85,.44-.22,.84-.51,1.26-.76,1.19-.71,1.93-.53,2.63,.71,.51,.9,.92,1.85,1.38,2.78,.04,.34,.44,.59,.25,.99Z"/><path class="e" d="M379.63,472.96c-2.11-3.68-2.87-8.36-4.04-12.92-.95-3.69-1.85-7.39-3.74-10.75-.51-.91-1.1-1.74-1.84-2.49-1.03-1.04-2.24-1.6-3.67-1.37-2.38,.38-4.25-.52-5.83-2.23-1.56-1.68-3.32-3.08-5.38-4.1-1.49-.74-2.36-1.99-2.71-3.65-.51-2.42-1.07-4.84-1.34-7.31-.25-2.28,.21-4.51,.61-6.74,.05-.28,.12-.62,.43-.7,.38-.1,.56,.26,.76,.52,.22,.28,.27,.85,.85,.29,3.19-3.1,7.05-3.55,11.2-2.59,1.9,.44,3.8,.56,5.74,.52,2.82-.05,3.59,.75,3.65,3.57,.02,1.03,.28,1.17,1.18,.65,.28-.16,.58-.36,.75-.62,.99-1.57,2.37-1.84,4.04-1.32,1.38,.43,2.67,.06,3.95-.41,1.19-.44,2.4-.78,3.67-.91,1.09-.11,1.69,.39,2.03,1.38,.61,1.76,.63,3.6,.47,5.39-.18,2.11,.28,3.99,1.31,5.81,.32,.57,.54,1.21,.75,1.83,.52,1.56,.14,2.92-1.17,3.83-2.53,1.75-3.09,4.09-2.19,6.93,.61,1.91,1.12,3.78,.24,5.76-.35,.79-.03,1.71,.12,2.56,.22,1.29-.12,1.71-1.42,1.89-.64,.09-1.32,0-1.93,.31-.47,.24-.64,.52-.06,.86,.25,.14,.49,.3,.74,.45,1.85,1.21,1.94,1.76,.58,3.53-.4,.52-.82,1.02-1.2,1.55-.17,.24-.32,.45-.12,.86,.43,.94-.06,1.56-.99,1.81-1.43,.38-1.52,.64-.48,1.77,.79,.86,1.13,1.81,.83,2.96-.31,1.15-.09,2.19,.63,3.16,.58,.78,.94,1.65,.97,2.64,.02,.64-.16,1.01-.93,.84-.92-.21-1.86-.33-2.79-.5q-2.31-.42-3.66-3.06Z"/><path class="e" d="M313.64,368.46c1.59,.2,3-.05,4.42-.02,.78,.02,1.56,.03,2.32,.13,.76,.09,1.22,.66,1.2,1.36-.02,.81-.8,.65-1.34,.68-.49,.03-.98-.03-1.47-.09-.77-.1-1.43-.23-1.99,.64-.41,.63-1.33,.51-2.06,.47-.83-.04-1.67-.18-2.37-.62-2.35-1.46-4.69-.86-6.97-.05-2.16,.77-4.29,1.57-6.58,1.87-.28,.04-.57,.08-.85,.07-.84-.03-1.89,.18-2.27-.8-.42-1.1,.39-1.97,1.01-2.76,.42-.52,.63-.12,.75,.38,.2,.91,.77,1.54,1.63,1.89,.35,.14,.76,.23,1.04-.09,.24-.28,.07-.62-.09-.92-.31-.59-.66-1.16-.89-1.77-.26-.72-.08-1.41,.82-.98,2.08,1,3.9,.35,5.84-.41,2.01-.79,4.12-1.32,6.29-1.54,.4-.04,.82-.08,1.22-.05,1.34,.09,1.61,.6,.93,1.73-.15,.24-.32,.47-.58,.86Z"/><path class="e" d="M447.05,395.67c1.13,2.69,1.93,5.62,1.91,8.73,0,.86,0,1.91-.92,2.25-1,.36-1.77-.39-2.44-1.1-1.02-1.1-1.26-2.48-1.35-3.9-.15-2.43,.36-4.76,1.12-7.03,.09-.26,.07-.66,.39-.7,.4-.06,.48,.38,.66,.63,.21,.3,.36,.65,.62,1.13Z"/><path class="e" d="M312.13,375.73c.45-.55,.82-1.02,.75-1.69-.06-.54,.36-.67,.76-.8,2.03-.65,4.1-.67,6.19-.37,.34,.05,.81,.1,.77,.62-.04,.46-.41,.67-.83,.79-.59,.17-1.33-.1-1.77,.55,.07,.09,.11,.18,.15,.19,.62,.09,1.68-.04,1.68,.57,0,.76-1.05,.43-1.61,.46-1.99,.12-3.99,.04-6.11-.32Z"/><path class="e" d="M335.54,384.81c.11,.85,.35,1.21,1.2,.79,.71-.35,1.36-.06,1.78,.65,.27,.45,.33,.79-.23,1.1-.9,.49-1.76,1.05-2.61,1.61-.55,.36-.8,.29-.8-.41-.01-1.24,.2-2.44,.67-3.73Z"/><path class="e" d="M337.27,422.67c-.28,.1-.39,.16-.5,.18-2.23,.41-4.46,.82-6.71,1.22,1.02-2.05,4.58-2.4,7.21-1.4Z"/><path class="e" d="M295.22,367.83c1.21-1.24,2.41-2.49,3.63-3.72,.36-.36,.85-.7,1.26-.21,.3,.37-.24,.63-.47,.88-1.24,1.33-2.61,2.49-4.22,3.33l-.2-.27Z"/><path class="e" d="M303.31,430.65l-.05-.44c1.93,1.21,4.11,1.97,5.84,3.53-2.28-.34-3.9-1.96-5.78-3.08Z"/><path class="e" d="M286.03,383.33c.43-.98,.84-1.9,1.23-2.82,.15-.36,.36-.53,.75-.39,.15,.05,.39,.09,.42,.19,.1,.33-.19,.48-.39,.66-.19,.17-.58,.24-.39,.63,.15,.32,.76,.45,.35,.99-.27,.35-1.05,.7-1.95,.75Z"/><path class="e" d="M339.69,422.33c.99-.71,1.96-.69,2.84-.93,.56-.16,.5,.4,.55,.73,.09,.59-.18,.96-.78,.99-.87,.04-1.64-.33-2.62-.79Z"/><path class="e" d="M293.66,370.39c.27,.37,0,.54-.14,.69-.69,.79-1.47,1.48-1.16,2.77,.12,.51-.48,.43-.81,.35-.28-.07-.78-.12-.48-.6,.68-1.06,1.41-2.07,2.13-3.1,.15-.22,.34-.13,.46-.11Z"/><path class="e" d="M302.67,365.68c.22-.12,.32-.2,.43-.23,.51-.16,1.11-.7,1.53-.08,.27,.4-.22,.83-.63,1.04-.65,.34-1.48,.78-2.01,.1-.46-.59,.5-.59,.67-.83Z"/><path class="e" d="M335.87,435.66c.19-.4-.21-.65-.25-.99,1.73,1.95,2.42,1.92,3.93-.17,.21-.29,.43-.74,.84-.44,.33,.25-.04,.56-.19,.81-1.04,1.61-2.37,1.85-4.32,.8Z"/><path class="e" d="M292.87,380.1c-.6,.24-1.2,.61-1.61,.01-.27-.39,.06-.91,.48-1.12,.6-.29,1.17,0,1.53,.46,.34,.45-.38,.39-.39,.65Z"/><path class="e" d="M330.57,400.94c.19,.52,0,.98-.37,1.31-.25,.21-.6,.07-.68-.24-.15-.56,.05-1.07,.5-1.4,.25-.19,.41,.13,.56,.34Z"/></g></g></g><g><g><path class="e" d="M805.62,318.23c.92-1.33,1.81-3.04,2.69-5.14,.87-2.09,1.56-4.47,2.07-7.13,.71-.61,1.38-1.1,2-1.46s1.23-.54,1.84-.54,1.23,.31,1.84,.92,1.23,1.64,1.84,3.07c0,2.35-.54,4.85-1.61,7.52-1.08,2.66-2.48,5.47-4.22,8.44-2.66,3.98-5.78,7.29-9.36,9.89-3.58,2.61-7.36,4.68-11.35,6.21-5.73,1.95-11.2,2.91-16.41,2.91-6.44,0-12.12-1.4-17.03-4.21-4.91-2.81-9.03-6.57-12.35-11.28-3.33-4.71-5.83-10.12-7.52-16.26-1.69-6.13-2.53-12.47-2.53-19.02,0-3.88,.31-7.82,.92-11.81,.61-3.99,1.54-7.82,2.76-11.51,3.17-9.3,7.54-18.04,13.11-26.23,5.57-8.18,11.84-15.75,18.79-22.7,6.95-6.95,14.39-13.22,22.32-18.79,7.93-5.57,15.82-10.4,23.7-14.5,5.01-2.55,10.22-4.85,15.64-6.9,5.42-2.04,10.91-3.76,16.49-5.13,5.57-1.38,11.14-2.46,16.72-3.22,5.57-.77,10.97-1.15,16.18-1.15,9.82,0,19.15,1.12,28,3.37,8.84,2.25,16.85,5.73,24.01,10.43,5.62,3.99,10.51,8.57,14.65,13.73,4.14,5.17,7.57,10.74,10.28,16.72,2.71,5.99,4.7,12.25,5.98,18.79,1.28,6.54,1.92,13.24,1.92,20.09,0,7.67-.79,15.31-2.38,22.93-1.59,7.62-3.86,14.98-6.83,22.09-2.97,7.11-6.62,13.8-10.97,20.09-4.35,6.29-9.28,11.89-14.8,16.8-5.52,4.91-11.61,8.97-18.25,12.19-6.65,3.22-13.75,5.35-21.32,6.37-3.28,.41-6.52,.74-9.74,.99-3.22,.26-6.47,.38-9.74,.38-2.76,10.74-5.96,21.05-9.59,30.91-3.63,9.87-8,18.58-13.11,26.15-5.12,7.56-11.15,13.6-18.1,18.1-6.96,4.5-15.09,6.75-24.39,6.75-3.89,0-8.03-.41-12.42-1.23-4.4-.82-9.1-2.25-14.12-4.3-1.74-1.74-2.53-3.28-2.38-4.6s1.61-2.4,4.37-3.22c2.25,.71,4.4,1.21,6.44,1.46,2.04,.26,4.09,.39,6.13,.39,6.24,0,11.74-1.48,16.49-4.45,4.76-2.96,8.87-6.88,12.35-11.73,3.48-4.85,6.42-10.38,8.82-16.57,2.4-6.19,4.42-12.45,6.06-18.79,2.25-8.69,4.29-18.02,6.13-27.99,1.84-9.97,3.5-20.02,4.98-30.14,1.48-10.12,2.74-20.09,3.76-29.91,1.02-9.82,1.84-18.92,2.45-27.3,0-1.53-.15-3.06-.46-4.6-.31-1.53-.61-2.7-.92-3.53-.21-.41-.36-.79-.46-1.15-.1-.35-.15-.79-.15-1.3,.1-1.43,.74-2.48,1.92-3.15,1.17-.67,2.53-1.05,4.06-1.15,4.6-.2,8.33,.26,11.2,1.38,2.86,1.12,5.08,2.68,6.67,4.68,1.58,2,2.68,4.32,3.3,6.98,.61,2.66,.97,5.37,1.08,8.13,.2,11.25-.44,23.08-1.92,35.51-1.48,12.43-3.45,26.15-5.9,41.19,8.28,0,15.77-2.2,22.47-6.6,6.7-4.39,12.4-10.22,17.1-17.49,4.7-7.26,8.31-15.52,10.82-24.77,2.5-9.25,3.76-18.64,3.76-28.15s-1.23-18-3.68-26.69c-2.45-8.69-6.34-16.42-11.66-23.16-5.32-6.75-12.09-12.17-20.32-16.26-8.23-4.09-18.08-6.13-29.53-6.13-12.17,0-26.23,2.76-42.19,8.29-8.18,3.28-15.95,7.33-23.31,12.19-7.36,4.85-13.96,10.48-19.79,16.87-5.83,6.39-10.77,13.5-14.8,21.32-4.04,7.82-6.83,16.33-8.36,25.54-.41,2.05-.69,4.09-.84,6.13-.15,2.05-.23,4.04-.23,5.99,0,5.22,.61,10.2,1.84,14.95,1.23,4.76,3.07,8.97,5.52,12.66,2.45,3.68,5.55,6.62,9.28,8.82,3.73,2.2,8.06,3.3,12.96,3.3h2.3c.71,0,1.48-.1,2.3-.31,3.27-.51,6.34-1.55,9.21-3.14,2.86-1.59,5.37-3.86,7.51-6.83Z"/><path class="e" d="M1039.4,346.76c-2.76,4.91-5.83,10.05-9.2,15.42-3.38,5.37-7.24,10.25-11.58,14.65-4.35,4.4-9.31,8.03-14.88,10.89-5.57,2.87-11.94,4.3-19.1,4.3-5.32,0-9.84-1.12-13.58-3.38-3.73-2.25-6.75-5.24-9.05-8.97-2.3-3.73-3.96-8.03-4.98-12.89-1.02-4.85-1.54-9.94-1.54-15.26v-3.92c0-1.27,.11-2.63,.31-4.06v.16c.51-5.73,1.54-11.53,3.07-17.41,1.53-5.88,3.5-11.61,5.9-17.18,2.4-5.58,5.19-10.79,8.36-15.65,3.17-4.85,6.67-9.13,10.51-12.81,3.83-3.68,7.92-6.57,12.27-8.67,4.34-2.1,8.87-3.15,13.57-3.15s8.51,.97,12.04,2.91c3.53,1.95,6.49,4.47,8.9,7.59,2.4,3.13,4.19,6.65,5.37,10.59,1.17,3.94,1.66,7.95,1.46,12.04-.61,5.73-2.66,11-6.13,15.8-3.48,4.81-7.67,9.05-12.58,12.73-4.91,3.68-10.2,6.75-15.88,9.21-5.68,2.45-11.12,4.24-16.33,5.37-.41,1.74-.75,3.53-1,5.37-.26,1.84-.49,3.79-.69,5.83-.1,.82-.15,1.66-.15,2.53v2.53c0,2.25,.18,4.43,.54,6.52,.35,2.1,.99,3.99,1.92,5.67,.92,1.69,2.2,3.07,3.83,4.15,1.63,1.07,3.68,1.71,6.13,1.91,3.89-.1,7.57-1.33,11.04-3.68,3.48-2.36,6.72-5.24,9.74-8.67s5.78-7.11,8.29-11.04c2.5-3.94,4.73-7.54,6.67-10.81v.15c2.45-4.3,4.73-8.51,6.83-12.65,2.1-4.15,4.01-7.91,5.75-11.28,.82-1.54,1.74-3.28,2.76-5.22,1.02-1.94,1.94-3.63,2.76-5.07,1.23-.51,2-.76,2.3-.76,.92,0,1.66,.28,2.22,.84,.56,.56,1.05,1.25,1.46,2.07l-1.53,3.37c-1.84,3.79-4.12,8.31-6.83,13.58-2.71,5.27-5.7,10.72-8.97,16.33Zm-11.81-55.22c-1.54-2.96-3.38-4.45-5.52-4.45-1.94,0-4.06,.92-6.37,2.76-2.3,1.85-4.6,4.25-6.9,7.21-2.3,2.97-4.58,6.29-6.83,9.98-2.25,3.68-4.27,7.36-6.06,11.04-1.79,3.68-3.38,7.18-4.76,10.51-1.38,3.32-2.33,6.06-2.84,8.2,3.48-.41,7.52-1.53,12.12-3.38,4.6-1.84,9.02-4.24,13.27-7.2,4.24-2.97,7.9-6.39,10.97-10.28,3.07-3.88,4.8-8.13,5.21-12.73,.41-3.78-.36-7.67-2.3-11.66Z"/><path class="e" d="M1089.4,236.93c-.21,2.66-.59,5.52-1.15,8.59-.57,3.06-1.21,6.34-1.92,9.82,4.5,0,8.82,.25,12.96,.76,4.14,.52,7.98,1.48,11.5,2.91,3.53,1.44,6.67,3.4,9.43,5.91,2.76,2.51,5.01,5.7,6.75,9.59h-.16c.41,.82,.26,1.68-.46,2.61-.71,.92-1.69,1.12-2.91,.61-4.29-4.3-9.54-7.18-15.72-8.67-6.19-1.48-12.86-2.23-20.02-2.23h-3.83c-1.02,4.6-2.12,9.21-3.3,13.81-1.18,4.6-2.38,9.31-3.61,14.11l-2.91,11.66-.46,2c-.71,2.66-1.64,6.26-2.76,10.82-1.13,4.55-2.22,9.46-3.3,14.72-1.07,5.27-1.99,10.56-2.76,15.88-.77,5.32-1.15,10.12-1.15,14.42,0,2.96,.23,5.54,.69,7.74,.46,2.2,1.3,3.71,2.53,4.53,.92,.71,2.4,.76,4.45,.15,2.05-.61,4.55-2,7.52-4.14,3.17-2.55,6.26-5.8,9.28-9.74,3.01-3.94,5.88-8.16,8.59-12.66,2.71-4.5,5.22-9.02,7.52-13.58,2.3-4.55,4.32-8.67,6.06-12.34h-.15c1.43-2.87,2.74-5.39,3.91-7.59,1.17-2.2,2.33-4.02,3.45-5.45,.1-.1,.66-.16,1.69-.16,1.63,0,2.81,.97,3.53,2.91l-5.52,11.51h.15c-3.28,6.85-6.85,14.06-10.74,21.63-3.89,7.57-8.05,14.52-12.5,20.86-4.45,6.35-9.18,11.58-14.19,15.72-5.01,4.15-10.27,6.22-15.8,6.22-9.1,0-15.44-2.25-19.02-6.75-3.58-4.49-5.37-10.79-5.37-18.86,0-1.13,.02-2.25,.07-3.38,.05-1.12,.13-2.3,.23-3.53,.31-3.48,1.02-8.23,2.15-14.26,1.12-6.03,2.45-12.66,3.99-19.87,1.54-7.21,3.22-14.78,5.06-22.7s3.63-15.57,5.37-22.93l2.15-8.74c-3.48,.31-6.8,.57-9.97,.77s-6.24,.31-9.2,.31c-6.24,0-11.71-.77-16.41-2.3-4.71-1.53-8.03-4.4-9.97-8.59-.2-.51-.36-1.1-.46-1.76-.1-.66-.05-1.23,.15-1.69,.2-.46,.59-.76,1.15-.92,.56-.15,1.3,.08,2.22,.69l-.15-.16c3.07,1.33,6.42,2.25,10.05,2.76,3.63,.51,7.39,.76,11.28,.76,3.68,0,7.62-.18,11.81-.54,4.19-.35,8.28-.74,12.27-1.15,1.43-6.44,2.66-12.09,3.68-16.95,1.02-4.85,1.63-8.36,1.84-10.51,.1-1.74,.07-3.19-.08-4.37s-.33-2.27-.54-3.3c-.1-.51-.18-1-.23-1.46-.05-.46-.08-.9-.08-1.31,.2-1.43,.84-2.38,1.92-2.84,1.08-.46,2.33-.69,3.76-.69,3.99,0,7.18,.61,9.59,1.84,2.4,1.23,4.24,2.84,5.52,4.83,1.28,2,2.07,4.27,2.38,6.82,.31,2.56,.36,5.17,.15,7.82Z"/><path class="e" d="M1123.15,287.4c.31-1.63,.46-3.07,.46-4.3,0-1.12,.1-2.09,.31-2.91,.41-1.33,1.23-2.12,2.45-2.38,1.23-.25,2.56-.18,3.99,.23,4.29,1.53,7.41,3.22,9.36,5.06,1.94,1.85,2.91,4.25,2.91,7.21,0,1.44-.18,3.02-.54,4.75-.36,1.74-.84,3.64-1.46,5.68-1.02,3.28-2.17,7.24-3.45,11.89-1.28,4.65-2.53,9.56-3.76,14.73-1.23,5.16-2.33,10.3-3.3,15.42-.97,5.11-1.71,9.81-2.22,14.11-.1,1.02-.18,2.12-.23,3.3-.05,1.17-.07,2.17-.07,2.99,0,3.58,.36,6.47,1.07,8.67s1.94,3.35,3.68,3.45c1.43,0,3.09-.87,4.99-2.61,1.89-1.74,3.91-4.04,6.06-6.9,2.15-2.86,4.35-6.11,6.6-9.74,2.25-3.63,4.5-7.41,6.75-11.35,2.25-3.94,4.4-7.82,6.44-11.66,2.04-3.83,3.88-7.33,5.52-10.51,1.33-2.46,2.48-4.62,3.45-6.52,.97-1.89,1.87-3.45,2.69-4.68,1.02-.51,1.79-.76,2.3-.76,1.33,0,2.61,1.02,3.83,3.06l-1.69,3.22c-2.05,4.09-4.35,8.72-6.9,13.88-2.56,5.17-5.35,10.38-8.36,15.65-3.02,5.27-6.16,10.4-9.43,15.42-3.28,5.01-6.55,9.46-9.82,13.35-3.28,3.89-6.55,7.01-9.82,9.36-3.27,2.36-6.39,3.53-9.36,3.53-3.58,0-6.57-.71-8.97-2.14-2.4-1.43-4.35-3.4-5.83-5.9s-2.53-5.42-3.15-8.74c-.61-3.32-.92-6.93-.92-10.82,0-1.23,.03-2.48,.08-3.76,.05-1.27,.13-2.53,.23-3.76,.82-10.02,2.56-19.86,5.22-29.52,2.66-9.66,5.57-19.35,8.74-29.07l2.15-7.06v.16Zm27.76-39.42c1.12,2.05,1.92,3.92,2.38,5.6,.46,1.68,.64,3.25,.53,4.68-.31,3.47-1.79,6.16-4.45,8.05-2.66,1.89-5.42,2.84-8.28,2.84-2.45,0-4.6-.99-6.44-2.99-1.84-2-2.66-5.14-2.45-9.44,.1-1.63,.46-3.3,1.08-4.98s1.38-3.19,2.3-4.52c.92-1.33,2.02-2.4,3.3-3.22s2.63-1.23,4.06-1.23c1.33,0,2.69,.42,4.06,1.23,1.38,.82,2.69,2.14,3.91,3.98Z"/><path class="e" d="M1212.58,236.93c-.21,2.66-.59,5.52-1.15,8.59-.57,3.06-1.21,6.34-1.92,9.82,4.5,0,8.82,.25,12.96,.76,4.14,.52,7.98,1.48,11.5,2.91,3.53,1.44,6.67,3.4,9.43,5.91,2.76,2.51,5.01,5.7,6.75,9.59h-.16c.41,.82,.26,1.68-.46,2.61-.71,.92-1.69,1.12-2.91,.61-4.29-4.3-9.54-7.18-15.72-8.67-6.19-1.48-12.86-2.23-20.02-2.23h-3.83c-1.02,4.6-2.12,9.21-3.3,13.81-1.18,4.6-2.38,9.31-3.61,14.11l-2.91,11.66-.46,2c-.71,2.66-1.64,6.26-2.76,10.82-1.13,4.55-2.22,9.46-3.3,14.72-1.07,5.27-1.99,10.56-2.76,15.88-.77,5.32-1.15,10.12-1.15,14.42,0,2.96,.23,5.54,.69,7.74,.46,2.2,1.3,3.71,2.53,4.53,.92,.71,2.4,.76,4.45,.15,2.05-.61,4.55-2,7.52-4.14,3.17-2.55,6.26-5.8,9.28-9.74,3.01-3.94,5.88-8.16,8.59-12.66,2.71-4.5,5.22-9.02,7.52-13.58,2.3-4.55,4.32-8.67,6.06-12.34h-.15c1.43-2.87,2.74-5.39,3.91-7.59,1.17-2.2,2.33-4.02,3.45-5.45,.1-.1,.66-.16,1.69-.16,1.63,0,2.81,.97,3.53,2.91l-5.52,11.51h.15c-3.28,6.85-6.85,14.06-10.74,21.63-3.89,7.57-8.05,14.52-12.5,20.86-4.45,6.35-9.18,11.58-14.19,15.72-5.01,4.15-10.27,6.22-15.8,6.22-9.1,0-15.44-2.25-19.02-6.75-3.58-4.49-5.37-10.79-5.37-18.86,0-1.13,.02-2.25,.07-3.38,.05-1.12,.13-2.3,.23-3.53,.31-3.48,1.02-8.23,2.15-14.26,1.12-6.03,2.45-12.66,3.99-19.87s3.22-14.78,5.06-22.7c1.84-7.93,3.63-15.57,5.37-22.93l2.15-8.74c-3.48,.31-6.8,.57-9.97,.77s-6.24,.31-9.2,.31c-6.24,0-11.71-.77-16.41-2.3-4.71-1.53-8.03-4.4-9.97-8.59-.2-.51-.36-1.1-.46-1.76-.1-.66-.05-1.23,.15-1.69,.2-.46,.59-.76,1.15-.92,.56-.15,1.3,.08,2.22,.69l-.15-.16c3.07,1.33,6.42,2.25,10.05,2.76,3.63,.51,7.39,.76,11.28,.76,3.68,0,7.62-.18,11.81-.54,4.19-.35,8.28-.74,12.27-1.15,1.43-6.44,2.66-12.09,3.68-16.95,1.02-4.85,1.63-8.36,1.84-10.51,.1-1.74,.07-3.19-.08-4.37-.15-1.18-.33-2.27-.54-3.3-.1-.51-.18-1-.23-1.46-.05-.46-.08-.9-.08-1.31,.2-1.43,.84-2.38,1.92-2.84,1.08-.46,2.33-.69,3.76-.69,3.99,0,7.18,.61,9.59,1.84,2.4,1.23,4.24,2.84,5.52,4.83s2.07,4.27,2.38,6.82c.31,2.56,.36,5.17,.15,7.82Z"/><path class="e" d="M1237.88,250.13c1.84-1.63,4.01-2.86,6.52-3.68,2.51-.82,5.04-1.23,7.59-1.23,1.74,0,3.42,.2,5.06,.61,1.63,.41,3.07,1.08,4.3,2,1.23,.92,2.22,2.12,2.99,3.6,.77,1.48,1.15,3.25,1.15,5.29,0,3.17-.71,6.8-2.15,10.89s-3.12,8.44-5.06,13.04c-.92,2.35-1.87,4.71-2.84,7.05-.97,2.36-1.87,4.75-2.69,7.21,3.99,5.93,7.77,11.92,11.35,17.95,3.58,6.03,6.75,11.86,9.51,17.49,2.76,5.62,4.96,10.89,6.59,15.8,1.64,4.91,2.51,9.16,2.61,12.73,2.35-3.47,4.65-7.11,6.9-10.89,2.25-3.79,4.42-7.54,6.52-11.28,2.09-3.73,4.01-7.29,5.75-10.66,1.74-3.38,3.22-6.34,4.45-8.9,0-.1,.1-.25,.31-.46,.1-.1,.15-.2,.15-.31l1.23-2.46h-.15c.51-1.02,.99-1.84,1.46-2.45,.46-.61,1.25-.92,2.38-.92,1.84,0,3.17,1.02,3.99,3.06l-.92,1.85-.46,.46c-1.54,2.97-3.3,6.44-5.29,10.43-1.99,3.99-4.17,8.18-6.52,12.58-2.36,4.4-4.86,8.85-7.52,13.35-2.66,4.5-5.37,8.8-8.13,12.89s-5.58,7.8-8.44,11.12c-2.86,3.32-5.62,6.01-8.28,8.06-2.45,1.74-5.19,3.28-8.21,4.6-3.02,1.33-6.11,2.45-9.28,3.37-3.17,.92-6.36,1.63-9.59,2.15-3.22,.51-6.26,.76-9.12,.76-3.38,0-6.52-.3-9.43-.91-2.91-.61-5.42-1.54-7.52-2.79-2.09-1.26-3.71-2.85-4.83-4.77-1.13-1.93-1.59-4.21-1.38-6.88,.21-1.43,.95-2.89,2.22-4.37,1.28-1.48,2.74-2.22,4.37-2.22,1.23,0,1.94,.56,2.14,1.68,.21,1.13,.26,2.3,.15,3.53,0,1.63,.38,2.96,1.15,3.98,.77,1.03,1.79,1.79,3.07,2.3,1.28,.52,2.69,.84,4.22,1,1.54,.15,3.07,.18,4.6,.07,8.18-.31,14.11-2.91,17.8-7.83,3.68-4.92,5.68-11.62,5.98-20.12,0-2.76-.38-5.86-1.15-9.29-.77-3.42-1.76-6.99-2.99-10.67-1.23-3.69-2.66-7.32-4.29-10.9-1.64-3.59-3.43-6.86-5.37-9.83l-6.75,15.2-5.52-2,8.13-19.2c-3.58-4.6-6.49-9.98-8.74-16.12-2.25-6.13-3.37-12.39-3.37-18.73,0-4.92,.84-9.68,2.53-14.28,1.69-4.61,4.63-8.6,8.82-11.98Zm11.66,35.13c.92-2.25,1.92-4.73,2.99-7.44,1.07-2.71,2.02-5.29,2.84-7.75,.82-2.45,1.43-4.68,1.84-6.67s.41-3.4,0-4.21h.15c-.61-1.23-1.28-1.89-2-2-.92-.1-1.92,.48-2.99,1.76-1.08,1.28-2.07,3.02-2.99,5.22-.92,2.2-1.69,4.68-2.3,7.44-.61,2.76-.92,5.52-.92,8.28,0,3.28,.61,6.29,1.84,9.05l1.53-3.68Z"/></g><g><path class="e" d="M1597.13,294.84c-3.79,6.54-7.85,13.5-12.19,20.86-4.35,7.36-8.85,14.72-13.5,22.09-4.65,7.36-9.38,14.52-14.19,21.48-4.81,6.95-9.61,13.29-14.42,19.02-5.52,6.44-11.74,12.24-18.64,17.41-6.9,5.16-14.11,9.43-21.63,12.81-7.52,3.38-15.11,5.77-22.78,7.21-7.67,1.43-15.03,1.69-22.09,.77-10.02-1.33-18.15-4.5-24.39-9.51-6.24-5.01-10.99-11.28-14.26-18.79-3.28-7.52-5.24-15.95-5.91-25.31-.67-9.36-.49-18.97,.54-28.84,1.02-9.87,2.66-19.68,4.91-29.46,2.25-9.76,4.76-18.84,7.52-27.22-6.04-.1-11.33-1.61-15.88-4.53-4.55-2.91-8.34-6.72-11.35-11.43-3.02-4.71-5.24-10.12-6.67-16.26-1.43-6.13-2-12.53-1.69-19.17,.41-5.01,1.43-10.53,3.07-16.57,1.63-6.03,3.73-11.76,6.29-17.18,2.55-5.42,5.57-10.1,9.05-14.04,3.48-3.94,7.31-6.31,11.5-7.13,1.12-.2,2.09-.16,2.91,.15,.82,.31,1.48,.77,2,1.38,.51,.61,.87,1.28,1.07,2s.31,1.38,.31,2c.1,1.53-.36,2.3-1.38,2.3-.51,.1-.95,.13-1.3,.07-.36-.05-.74-.13-1.15-.23h-1.23c-2.45,.51-4.78,2.1-6.98,4.76-2.2,2.66-4.17,5.85-5.9,9.59-1.74,3.73-3.17,7.72-4.3,11.96-1.13,4.24-1.89,8.26-2.3,12.04-.1,5.62,.46,11.12,1.69,16.49,1.23,5.37,3.15,10.15,5.75,14.34,2.61,4.19,5.9,7.5,9.89,9.89,3.99,2.4,8.69,3.45,14.11,3.15,3.07-7.67,6.8-15.74,11.2-24.23,4.4-8.49,9.38-16.85,14.96-25.08,5.57-8.23,11.71-16.08,18.41-23.55,6.7-7.46,13.88-14.03,21.55-19.71,7.67-5.68,15.8-10.18,24.39-13.5,8.59-3.32,17.59-4.98,27-4.98,5.62,0,10.86,1.21,15.72,3.6,4.85,2.4,9.07,6.22,12.65,11.43,2.25,3.37,4.19,7.03,5.83,10.96,1.63,3.94,2.99,8.06,4.06,12.35,1.08,4.3,1.84,8.64,2.3,13.04,.46,4.4,.59,8.64,.38,12.73-.21,4.5-.82,8.72-1.84,12.65-1.02,3.94-2.45,7.44-4.3,10.51-1.84,3.07-4.14,5.68-6.9,7.82-2.76,2.15-5.98,3.58-9.67,4.3-2.97,.51-6.03,.41-9.2-.31s-6.06-2.02-8.67-3.91-4.78-4.4-6.52-7.52c-1.74-3.12-2.61-6.88-2.61-11.28-3.38,3.89-7.44,7.88-12.19,11.96-4.76,4.09-10,8.08-15.73,11.96-5.73,3.89-11.89,7.57-18.48,11.04-6.59,3.48-13.42,6.55-20.48,9.21-3.78,10.53-7.11,21.45-9.97,32.75-2.87,11.3-4.76,22.47-5.68,33.51-.2,1.74-.33,3.45-.38,5.14-.05,1.68-.13,3.4-.23,5.13-.71,4.6-.87,9.28-.46,14.04,.41,4.75,1.38,9.3,2.91,13.65,1.54,4.34,3.66,8.25,6.37,11.73,2.71,3.47,5.95,6.19,9.74,8.13,4.6,2.46,9.43,3.5,14.5,3.15,5.06-.36,10.1-1.61,15.11-3.76,5.01-2.14,9.87-4.96,14.57-8.44,4.7-3.48,9-7.11,12.89-10.89,5.01-5.52,10-11.68,14.96-18.48,4.96-6.8,9.74-13.75,14.34-20.86,4.6-7.11,8.99-14.16,13.19-21.17,4.19-7,8.03-13.47,11.51-19.41h-.16l6.29-10.89c2.97-1.94,5.26-1.23,6.9,2.14l-4.75,8.9Zm-45.87-84.21c-.31,1.02-.54,2.05-.69,3.07s-.33,2.04-.54,3.06c-.31,3.48-.1,6.8,.62,9.97,.71,3.17,1.84,5.94,3.37,8.29,1.53,2.36,3.45,4.14,5.75,5.37,2.3,1.23,4.83,1.69,7.6,1.38,3.07-1.02,5.55-3.5,7.44-7.44,1.89-3.94,2.94-8.67,3.15-14.19,.2-4.3,.07-8.77-.38-13.42-.46-4.66-1.28-9.18-2.45-13.58-1.18-4.4-2.68-8.54-4.52-12.43-1.84-3.89-3.97-7.23-6.37-10.05-2.4-2.81-5.11-4.93-8.13-6.36-3.02-1.44-6.26-1.89-9.74-1.38-5.83,1.33-11.74,4.78-17.72,10.35-5.98,5.58-11.79,12.5-17.41,20.79-5.62,8.28-10.97,17.49-16.03,27.61-5.06,10.12-9.64,20.35-13.73,30.68,6.03-2.05,12.09-4.45,18.18-7.21,6.08-2.76,11.94-5.99,17.56-9.66,5.62-3.68,10.82-7.85,15.57-12.51,4.75-4.65,8.82-9.84,12.19-15.57,1.12-1.23,2.14-1.92,3.07-2.07,.92-.16,1.69,0,2.3,.46,.62,.46,1,1.15,1.15,2.07,.15,.93,.08,1.85-.23,2.76Z"/><path class="e" d="M1621.36,354.81c-5.83,0-10.69-1.55-14.57-4.68-3.89-3.12-7.03-7.08-9.43-11.89-2.4-4.8-4.09-10.12-5.06-15.95-.97-5.83-1.46-11.5-1.46-17.02v-4.53c0-1.48,.1-2.84,.31-4.06,.41-4.91,.97-9.46,1.69-13.65,.71-4.19,1.63-7.77,2.76-10.74,2.04-2.45,4.42-4.24,7.13-5.37,2.71-1.12,5.49-1.69,8.36-1.69,1.63,0,3.3,.2,4.98,.61,1.69,.41,3.24,.97,4.68,1.69,.51-5.42,1.41-10.81,2.69-16.18,1.28-5.37,3.17-10.2,5.68-14.5,2.5-4.3,5.77-7.77,9.82-10.43,4.04-2.66,9.13-3.98,15.26-3.98,5.01,0,9.28,1.05,12.81,3.14,3.53,2.1,6.44,4.94,8.75,8.52,2.3,3.58,3.99,7.82,5.06,12.73,1.08,4.9,1.61,10.17,1.61,15.8,0,3.07-.16,5.99-.46,8.74v-.15c-.82,7.97-2.51,16.16-5.06,24.54-2.56,8.39-5.78,16.26-9.67,23.62,3.99-.82,7.52-2.32,10.58-4.52,3.07-2.2,5.88-4.85,8.44-7.98,2.55-3.12,4.88-6.54,6.98-10.27,2.09-3.73,4.12-7.49,6.06-11.28l3.37-6.13c.51-.2,1-.41,1.46-.61s.84-.31,1.15-.31c.51,0,1.02,.2,1.53,.61s.92,1.23,1.23,2.45c-1.74,4.09-3.99,8.77-6.75,14.04-2.76,5.26-6.03,10.25-9.82,14.95-3.79,4.71-8.11,8.74-12.96,12.12-4.86,3.38-10.25,5.22-16.18,5.52-2.66,3.99-5.5,7.62-8.51,10.89-3.02,3.28-6.27,6.09-9.74,8.44-3.48,2.36-7.11,4.19-10.89,5.52-3.79,1.33-7.72,2-11.81,2Zm30.37-27.45c-5.11-1.53-9.51-3.55-13.19-6.06-3.68-2.51-6.75-5.45-9.21-8.82-2.45-3.38-4.37-7.11-5.75-11.2-1.38-4.09-2.33-8.48-2.84-13.19-.31,1.63-.54,3.32-.69,5.06-.15,1.74-.33,3.48-.53,5.22-.31,3.28-.46,6.44-.46,9.51,0,3.79,.23,7.44,.69,10.96,.46,3.53,1.25,6.65,2.38,9.36,1.12,2.71,2.6,4.88,4.45,6.52,1.84,1.64,4.09,2.46,6.75,2.46,3.47,0,6.7-.82,9.66-2.46,2.97-1.63,5.88-4.09,8.74-7.36Zm-13.96-51.24c0,4.3,.26,8.8,.77,13.5,.51,4.71,1.5,9.08,2.99,13.11,1.48,4.04,3.53,7.52,6.13,10.43s6.06,4.78,10.36,5.6c1.94-3.17,3.76-6.67,5.44-10.51,1.69-3.83,3.2-7.77,4.52-11.81,1.33-4.04,2.43-8.18,3.3-12.42,.87-4.24,1.46-8.36,1.76-12.35,.2-1.43,.31-2.78,.31-4.06v-3.91c0-4.4-.38-8.54-1.15-12.43-.77-3.89-1.94-7.26-3.53-10.12-1.59-2.86-3.63-5.14-6.13-6.82-2.51-1.69-5.45-2.53-8.82-2.53-2.35,0-4.43,.84-6.21,2.53-1.79,1.68-3.3,3.96-4.52,6.82-1.23,2.87-2.2,6.19-2.91,9.97-.71,3.79-1.28,7.73-1.69,11.81-.2,1.84-.36,3.89-.46,6.13-.1,2.25-.15,4.6-.15,7.05Z"/><path class="e" d="M1777.36,313.86c-2.76,4.91-5.83,10.05-9.2,15.42-3.38,5.37-7.24,10.25-11.58,14.65-4.35,4.4-9.31,8.03-14.88,10.89-5.57,2.87-11.94,4.3-19.1,4.3-5.32,0-9.84-1.12-13.58-3.38-3.73-2.25-6.75-5.24-9.05-8.97-2.3-3.73-3.96-8.03-4.98-12.89-1.02-4.85-1.54-9.94-1.54-15.26v-3.92c0-1.27,.11-2.63,.31-4.06v.16c.51-5.73,1.54-11.53,3.07-17.41,1.53-5.88,3.5-11.61,5.9-17.18,2.4-5.58,5.19-10.79,8.36-15.65,3.17-4.85,6.67-9.13,10.51-12.81,3.83-3.68,7.92-6.57,12.27-8.67,4.34-2.1,8.87-3.15,13.57-3.15s8.51,.97,12.04,2.91c3.53,1.95,6.49,4.47,8.9,7.59,2.4,3.13,4.19,6.65,5.37,10.59,1.17,3.94,1.66,7.95,1.46,12.04-.61,5.73-2.66,11-6.13,15.8-3.48,4.81-7.67,9.05-12.58,12.73-4.91,3.68-10.2,6.75-15.88,9.21-5.68,2.45-11.12,4.24-16.33,5.37-.41,1.74-.75,3.53-1,5.37-.26,1.84-.49,3.79-.69,5.83-.1,.82-.15,1.66-.15,2.53v2.53c0,2.25,.18,4.43,.54,6.52,.35,2.1,.99,3.99,1.92,5.67,.92,1.69,2.2,3.07,3.83,4.15,1.63,1.07,3.68,1.71,6.13,1.91,3.89-.1,7.57-1.33,11.04-3.68,3.48-2.36,6.72-5.24,9.74-8.67,3.02-3.42,5.78-7.11,8.29-11.04,2.5-3.94,4.73-7.54,6.67-10.81v.15c2.45-4.3,4.73-8.51,6.83-12.65,2.1-4.15,4.01-7.91,5.75-11.28,.82-1.54,1.74-3.28,2.76-5.22,1.02-1.94,1.94-3.63,2.76-5.07,1.23-.51,2-.76,2.3-.76,.92,0,1.66,.28,2.22,.84,.56,.56,1.05,1.25,1.46,2.07l-1.53,3.37c-1.84,3.79-4.12,8.31-6.83,13.58-2.71,5.27-5.7,10.72-8.97,16.33Zm-11.81-55.22c-1.54-2.96-3.38-4.45-5.52-4.45-1.94,0-4.06,.92-6.37,2.76-2.3,1.85-4.6,4.25-6.9,7.21-2.3,2.97-4.58,6.29-6.83,9.98-2.25,3.68-4.27,7.36-6.06,11.04-1.79,3.68-3.38,7.18-4.76,10.51-1.38,3.32-2.33,6.06-2.84,8.2,3.48-.41,7.52-1.53,12.12-3.38,4.6-1.84,9.02-4.24,13.27-7.2,4.24-2.97,7.9-6.39,10.97-10.28,3.07-3.88,4.8-8.13,5.21-12.73,.41-3.78-.36-7.67-2.3-11.66Z"/><path class="e" d="M1809.73,242.23c2.97,1.85,4.96,4.58,5.99,8.22,1.02,3.64,1.38,7.46,1.07,11.45-.41,4.51-1.23,8.99-2.45,13.45-1.23,4.45-2.4,8.22-3.53,11.29-.92,2.97-2.02,6.5-3.3,10.59-1.28,4.1-2.48,8.33-3.61,12.68-1.13,4.35-2.17,8.63-3.14,12.83-.97,4.19-1.61,7.83-1.92,10.91-.1,2.25-.02,4.19,.23,5.84s.84,2.46,1.76,2.46c1.33,0,3.04-.97,5.14-2.91,2.1-1.94,4.4-4.5,6.9-7.67,2.51-3.17,5.06-6.7,7.67-10.59,2.61-3.89,5.16-7.82,7.67-11.81,2.5-3.98,4.83-7.77,6.98-11.35,2.14-3.57,3.99-6.59,5.52-9.05l-.15,.16c1.02-3.07,1.97-5.96,2.84-8.67s1.66-5.37,2.38-7.98c.71-2.61,1.33-5.26,1.84-7.97s.87-5.6,1.08-8.67c.1-.82,.1-1.66,0-2.53-.11-.86-.26-1.71-.46-2.53-.1-.31-.15-.82-.15-1.54,0-.31-.05-.56-.15-.76,.2-2.04,1.02-3.45,2.45-4.22,1.43-.76,3.88-1.15,7.36-1.15,2.45,0,4.45,.49,5.98,1.46,1.54,.97,2.73,2.25,3.61,3.84,.87,1.59,1.43,3.45,1.69,5.6,.25,2.14,.28,4.34,.07,6.6-.51,5.62-1.69,11.94-3.53,18.94-1.84,7.01-3.79,13.88-5.83,20.63-1.84,6.13-3.53,11.86-5.06,17.18-1.54,5.32-2.4,9.82-2.61,13.5-.1,1.03-.15,2.23-.15,3.61s.13,2.68,.38,3.91c.26,1.23,.64,2.28,1.15,3.15,.51,.87,1.17,1.31,2,1.31,1.63,0,3.7-1.42,6.21-4.26,2.5-2.83,5.22-6.41,8.13-10.74,2.91-4.32,5.85-8.99,8.82-14,2.96-5.01,5.68-9.76,8.13-14.26,2.45-4.5,4.5-8.33,6.14-11.51,1.63-3.17,2.61-5.01,2.91-5.52l.46-1.08h-.15c.51-1.02,1-1.84,1.46-2.45,.46-.61,1.25-.92,2.38-.92,1.02,0,1.81,.28,2.38,.84s1.05,1.25,1.46,2.07c-.72,1.23-1.54,2.71-2.45,4.45-.92,1.74-1.79,3.48-2.61,5.22-2.05,3.99-4.25,8.36-6.6,13.11-2.35,4.76-4.88,9.52-7.59,14.28-2.71,4.77-5.55,9.38-8.51,13.87-2.97,4.48-6.01,8.46-9.13,11.95-3.12,3.49-6.27,6.25-9.43,8.3-3.17,2.04-6.34,3.06-9.51,3.06-3.58,0-6.57-.48-8.97-1.46-2.41-.97-4.35-2.35-5.83-4.14-1.48-1.79-2.53-3.92-3.14-6.38-.61-2.46-.92-5.18-.92-8.17v-4.48c.1-1.55,.28-3.17,.54-4.87,.26-1.7,.59-3.42,1-5.17-.21,.2-.33,.41-.38,.61s-.18,.41-.38,.61c-2.66,4.19-5.42,8.33-8.28,12.43-2.87,4.09-5.88,7.8-9.05,11.12-3.17,3.32-6.57,6.01-10.2,8.06-3.63,2.05-7.49,3.07-11.58,3.07-5.32,0-9.03-1.77-11.12-5.3-2.09-3.53-3.15-8.2-3.15-14.03,0-1.02,.03-2.04,.08-3.07,.05-1.02,.13-2.09,.23-3.22,.31-3.37,.82-7.03,1.54-10.96,.71-3.94,1.56-7.95,2.53-12.05,.97-4.09,2.02-8.2,3.15-12.34,1.12-4.15,2.2-8.1,3.22-11.89,1.74-6.13,3.3-11.96,4.68-17.49,1.38-5.52,2.23-9.98,2.53-13.35,.2-1.63,.18-3-.08-4.06-.26-1.08-.49-2.02-.69-2.84v.15c-.2-.51-.31-.92-.31-1.23v-1.08c.1-1.43,.71-2.4,1.84-2.91,1.12-.51,2.4-.76,3.83-.76,2.05,0,4.12,.31,6.21,.92,2.1,.61,3.61,1.18,4.52,1.69Z"/><path class="e" d="M1923.55,429.37c-5.42,0-10.49-.87-15.19-2.61-4.71-1.74-8.84-4.4-12.42-7.98-3.58-3.57-6.44-8.05-8.59-13.42-2.14-5.37-3.27-11.68-3.37-18.94-14.62-4.3-31.14-6.44-49.55-6.44-7.67,0-15.62,.33-23.85,.99-8.23,.67-16.74,1.66-25.54,3-12.17,1.84-24.08,4.47-35.74,7.9-11.66,3.42-22.47,7.74-32.44,12.96-9.97,5.22-18.82,11.41-26.54,18.56-7.72,7.16-13.73,15.34-18.02,24.55-.1,.2-.23,.48-.38,.84-.15,.35-.28,.69-.38,.99-.51,1.43-1.23,3.02-2.15,4.76-.92,1.74-2.3,2.7-4.14,2.91-2.04-.11-3.76-1.28-5.14-3.53-1.38-2.25-2.48-4.81-3.3-7.67-1.02-3.17-1.53-6.65-1.53-10.43,0-4.19,.69-8.36,2.07-12.5,1.38-4.14,3.25-8.13,5.6-11.96,2.36-3.83,5.09-7.49,8.21-10.97,3.12-3.48,6.37-6.6,9.74-9.36,5.93-4.4,12.73-8.29,20.4-11.66,7.67-3.38,15.88-6.29,24.62-8.74,8.74-2.46,17.79-4.5,27.15-6.13,9.36-1.64,18.64-2.91,27.84-3.84,4.91-.51,9.84-.84,14.8-.99,4.96-.16,9.74-.23,14.34-.23,14.11,0,27.61,1.08,40.5,3.22,12.89,2.15,24.75,5.73,35.59,10.74,1.64-9.41,3.53-18.2,5.68-26.38,2.15-8.18,4.4-15.87,6.75-23.08s4.76-13.93,7.21-20.18c2.45-6.23,4.76-12.06,6.9-17.49,.82-2.14,1.61-4.27,2.38-6.37,.77-2.09,1.61-4.21,2.53-6.37h-2.53c-.77,0-1.51-.05-2.22-.15-.82,0-1.79-.03-2.91-.07-1.13-.05-2.1-.13-2.91-.23l-10.43,21.63c-2.15-.51-3.63-.84-4.45-.99-.82-.16-1.53-.38-2.15-.69,1.74-3.58,3.5-7.06,5.29-10.43,1.79-3.38,3.55-6.85,5.29-10.43-3.78-.2-6.96-1.08-9.51-2.61-2.56-1.54-4.6-3.51-6.14-5.91-1.53-2.4-2.58-5.11-3.14-8.13-.56-3.01-.69-6.11-.38-9.28,.31-3.47,1.15-6.98,2.53-10.51,1.38-3.53,3.25-6.69,5.6-9.51,2.35-2.81,5.09-5.09,8.21-6.83,3.12-1.74,6.62-2.61,10.51-2.61,4.3,0,7.44,1.35,9.43,4.06s2.84,6.63,2.53,11.73c-.31,2.56-.79,5.24-1.46,8.06-.66,2.81-1.38,5.55-2.14,8.2-.77,2.66-1.56,5.12-2.38,7.37-.82,2.25-1.48,4.09-2,5.52-.2,.31-.31,.57-.31,.76,0,.21-.1,.52-.31,.93,1.12,.2,2.43,.35,3.91,.46,1.48,.1,2.94,.16,4.37,.16,.82,0,1.66-.03,2.53-.08,.87-.05,1.76-.07,2.68-.07,.82,0,1.63-.02,2.45-.07,.82-.05,1.58-.07,2.3-.07,1.84,0,3.53,.07,5.06,.22,1.53,.16,2.91,.49,4.14,1,2.56,1.12,3.84,3.79,3.84,7.97,0,2.46-.41,5.3-1.23,8.52-.82,3.22-1.79,6.52-2.91,9.89-1.13,3.37-2.35,6.7-3.68,9.97-1.33,3.28-2.51,6.13-3.53,8.59-.41,.92-.87,1.94-1.38,3.06-.51,1.13-.92,2.15-1.23,3.07-1.94,5.52-3.94,11.22-5.99,17.1-2.05,5.88-4.01,11.73-5.9,17.56-1.89,5.83-3.61,11.55-5.14,17.18-1.53,5.62-2.81,10.99-3.83,16.11,2.35,1.74,4.47,3.42,6.37,5.06,1.89,1.63,3.76,3.47,5.6,5.52,0-6.44,1.54-11.76,4.6-15.95,3.07-4.19,6.9-7.16,11.5-8.89,3.99-1.44,7.72-2.15,11.2-2.15,3.68,0,7,.69,9.97,2.07,2.97,1.38,5.49,3.22,7.59,5.52,2.09,2.3,3.71,4.96,4.83,7.98,1.13,3.02,1.69,6.21,1.69,9.59s-.82,7.03-2.45,10.66c-1.64,3.63-4.06,7.08-7.29,10.36-3.22,3.28-7.21,6.21-11.96,8.82-4.76,2.61-10.25,4.63-16.49,6.06-1.53,.2-3.15,.39-4.83,.54-1.69,.16-3.3,.23-4.83,.23Zm-24.08-174.71c-.21,1.94,.02,3.55,.69,4.83,.66,1.28,1.97,2.17,3.91,2.68,.41-.92,1.05-2.4,1.92-4.45,.87-2.04,1.76-4.32,2.68-6.82,.92-2.51,1.74-5.04,2.45-7.6,.71-2.55,1.17-4.8,1.38-6.75,.1-2.14-.11-3.22-.62-3.22-.82,0-1.89,.69-3.22,2.07-1.33,1.38-2.64,3.15-3.91,5.29-1.28,2.15-2.43,4.48-3.45,6.98-1.02,2.51-1.63,4.83-1.84,6.99Zm23.01,156.46c-.71-2.14-2.2-4.63-4.45-7.44-2.25-2.81-5.83-5.65-10.74-8.51,.31,3.07,.89,6.11,1.76,9.13,.87,3.01,2.15,5.73,3.83,8.13,1.69,2.4,3.76,4.26,6.21,5.6,2.45,1.33,5.42,1.74,8.9,1.23,4.4-.51,8.23-1.74,11.5-3.68,3.27-1.94,6.01-4.27,8.21-6.98,2.2-2.71,3.86-5.6,4.98-8.66,1.12-3.07,1.69-6.04,1.69-8.9,0-3.48-.82-6.42-2.45-8.82-1.64-2.41-4.25-3.61-7.82-3.61-.61,0-1.35,.05-2.22,.16-.87,.1-1.76,.31-2.69,.61-1.74,.51-3.4,1.4-4.98,2.68-1.59,1.28-2.99,2.81-4.22,4.6-1.23,1.78-2.2,3.81-2.91,6.06-.72,2.25-1.08,4.6-1.08,7.05,0,3.07,.67,6.24,2,9.51l-.15-.16c.61,1.12,.74,1.97,.38,2.53-.36,.56-1.05,1.15-2.07,1.76-1.02,.41-1.82,.35-2.38-.16s-1-1.17-1.3-1.99v-.16Z"/><path class="e" d="M1959.59,217.22c1.84-1.63,4.01-2.86,6.52-3.68,2.51-.82,5.04-1.23,7.59-1.23,1.74,0,3.42,.2,5.06,.61,1.63,.41,3.07,1.08,4.3,2,1.23,.92,2.22,2.12,2.99,3.6,.77,1.48,1.15,3.25,1.15,5.29,0,3.17-.71,6.8-2.15,10.89-1.43,4.09-3.12,8.44-5.06,13.04-.92,2.35-1.87,4.71-2.84,7.05-.97,2.36-1.87,4.75-2.69,7.21,3.99,5.93,7.77,11.92,11.35,17.95,3.58,6.03,6.75,11.86,9.51,17.49s4.96,10.89,6.59,15.8c1.64,4.91,2.51,9.16,2.61,12.73,2.35-3.47,4.65-7.11,6.9-10.89,2.25-3.79,4.42-7.54,6.52-11.28,2.09-3.73,4.01-7.29,5.75-10.66,1.74-3.38,3.22-6.34,4.45-8.9,0-.1,.1-.25,.31-.46,.1-.1,.15-.2,.15-.31l1.23-2.46h-.15c.51-1.02,.99-1.84,1.46-2.45,.46-.61,1.25-.92,2.38-.92,1.84,0,3.17,1.02,3.99,3.06l-.92,1.85-.46,.46c-1.54,2.97-3.3,6.44-5.29,10.43-1.99,3.99-4.17,8.18-6.52,12.58-2.36,4.4-4.86,8.85-7.52,13.35-2.66,4.5-5.37,8.8-8.13,12.89-2.76,4.09-5.58,7.8-8.44,11.12-2.86,3.32-5.62,6.01-8.28,8.06-2.45,1.74-5.19,3.28-8.21,4.6-3.02,1.33-6.11,2.45-9.28,3.37-3.17,.92-6.36,1.63-9.59,2.15-3.22,.51-6.26,.76-9.12,.76-3.38,0-6.52-.3-9.43-.91-2.91-.61-5.42-1.54-7.52-2.79-2.09-1.26-3.71-2.85-4.83-4.77-1.13-1.93-1.59-4.21-1.38-6.88,.21-1.43,.95-2.89,2.22-4.37,1.28-1.48,2.74-2.22,4.37-2.22,1.23,0,1.94,.56,2.14,1.68,.21,1.13,.26,2.3,.15,3.53,0,1.63,.38,2.96,1.15,3.98,.77,1.03,1.79,1.79,3.07,2.3,1.28,.52,2.69,.84,4.22,1,1.54,.15,3.07,.18,4.6,.07,8.18-.31,14.11-2.91,17.8-7.83,3.68-4.92,5.68-11.62,5.98-20.12,0-2.76-.38-5.86-1.15-9.29-.77-3.42-1.76-6.99-2.99-10.67-1.23-3.69-2.66-7.32-4.29-10.9-1.64-3.59-3.43-6.86-5.37-9.83l-6.75,15.2-5.52-2,8.13-19.2c-3.58-4.6-6.49-9.98-8.74-16.12-2.25-6.13-3.37-12.39-3.37-18.73,0-4.92,.84-9.68,2.53-14.28,1.69-4.61,4.63-8.6,8.82-11.98Zm11.66,35.13c.92-2.25,1.92-4.73,2.99-7.44,1.07-2.71,2.02-5.29,2.84-7.75,.82-2.45,1.43-4.68,1.84-6.67s.41-3.4,0-4.21h.15c-.61-1.23-1.28-1.89-2-2-.92-.1-1.92,.48-2.99,1.76-1.08,1.28-2.07,3.02-2.99,5.22s-1.69,4.68-2.3,7.44c-.61,2.76-.92,5.52-.92,8.28,0,3.28,.61,6.29,1.84,9.05l1.53-3.68Z"/></g><g><path class="e" d="M2180.17,390.71c-9,0-15.36-2.27-19.1-6.83-3.73-4.55-5.6-10.97-5.6-19.25,0-.92,.02-1.92,.07-2.99,.05-1.08,.13-2.17,.23-3.3v-1.69c0-.4,.02-.82,.08-1.23,.05-.41,.1-.89,.15-1.46,.05-.56,.18-1.35,.38-2.38-2.86,4.71-5.98,9.36-9.36,13.96s-6.98,8.74-10.82,12.43c-3.83,3.68-7.85,6.65-12.04,8.89-4.19,2.25-8.49,3.38-12.89,3.38-3.99,0-7.36-.69-10.12-2.07s-4.98-3.25-6.67-5.6c-1.69-2.36-2.89-5.09-3.61-8.21-.71-3.11-1.07-6.36-1.07-9.74v-2.46c0-.82,.05-1.63,.15-2.45,.61-5.11,1.92-10.79,3.91-17.03,2-6.23,4.55-12.55,7.67-18.94,3.12-6.39,6.72-12.6,10.81-18.64,4.09-6.03,8.57-11.38,13.42-16.03,4.85-4.65,9.99-8.38,15.42-11.2,5.42-2.81,11.04-4.21,16.87-4.21,2.76,0,5.31,.41,7.67,1.23,2.35,.82,4.55,2,6.59,3.53l1.54-5.83c1.12-4.81,2.2-9.4,3.22-13.8,1.02-4.4,1.94-8.44,2.76-12.12,.82-3.68,1.48-6.9,2-9.66,.51-2.76,.82-4.91,.92-6.45,.1-1.74,.07-3.22-.08-4.45s-.33-2.3-.53-3.22c-.11-.51-.18-.99-.23-1.46s-.07-.89-.07-1.3c.1-1.44,.74-2.38,1.92-2.84,1.17-.46,2.48-.69,3.91-.69,3.99,0,7.18,.62,9.59,1.85,2.4,1.23,4.22,2.84,5.44,4.83,1.23,2,2,4.28,2.3,6.84,.31,2.56,.36,5.17,.15,7.83-.2,2.36-.67,5.53-1.38,9.52-.72,4-1.64,8.52-2.76,13.59-1.13,5.07-2.38,10.54-3.76,16.43-1.38,5.88-2.79,11.95-4.22,18.19-.41,2.05-.97,4.53-1.69,7.45-.71,2.92-1.48,6.01-2.3,9.29-1.13,4.3-2.28,8.91-3.45,13.82-1.17,4.91-2.27,9.8-3.3,14.66-1.02,4.86-1.84,9.52-2.45,13.97-.61,4.45-.92,8.37-.92,11.75v2.61c0,.82,.1,1.59,.31,2.3,.61,4.19,2.45,6.29,5.52,6.29,1.23,0,2.58-.31,4.06-.92,1.48-.61,2.94-1.4,4.37-2.38,1.43-.97,2.81-2.04,4.14-3.22s2.51-2.33,3.53-3.45c2.66-2.96,5.21-6.31,7.67-10.05,2.45-3.73,4.78-7.54,6.98-11.43,2.2-3.88,4.24-7.75,6.14-11.58,1.89-3.83,3.6-7.29,5.14-10.35,1.43-2.87,2.63-5.32,3.61-7.37,.97-2.04,1.76-3.47,2.38-4.3,.41-.31,.84-.51,1.3-.61,.46-.1,.84-.15,1.15-.15,.82,0,1.51,.28,2.07,.84,.56,.56,1.05,1.25,1.46,2.07-1.02,1.84-2.02,3.89-2.99,6.13-.97,2.25-2.02,4.45-3.15,6.6-1.84,3.68-3.73,7.49-5.68,11.43-1.94,3.94-3.96,7.85-6.06,11.73-2.1,3.89-4.24,7.67-6.44,11.35-2.2,3.68-4.47,7.06-6.83,10.12-1.74,2.15-3.58,4.29-5.52,6.42-1.94,2.13-4.04,4.06-6.29,5.77-2.25,1.72-4.66,3.13-7.21,4.24-2.56,1.12-5.37,1.77-8.44,1.97Zm-19.33-61.82c1.12-5.11,2.3-10.4,3.53-15.88,1.23-5.47,2.51-11.02,3.84-16.64,.2-1.12,.48-2.17,.84-3.15,.36-.97,.64-2.02,.84-3.15-2.05-1.53-4.5-2.3-7.36-2.3-3.58,0-7.21,1.41-10.89,4.22-3.68,2.81-7.21,6.44-10.58,10.89-3.38,4.45-6.55,9.44-9.51,14.96-2.97,5.52-5.6,11.02-7.9,16.49-2.3,5.47-4.17,10.61-5.6,15.42-1.43,4.81-2.25,8.69-2.45,11.66-.2,1.43-.26,2.97-.15,4.6s.38,3.15,.84,4.52c.46,1.38,1.2,2.51,2.22,3.38s2.45,1.3,4.3,1.3c2.25,0,4.6-.82,7.06-2.45,2.45-1.63,4.91-3.79,7.36-6.44,2.45-2.66,4.83-5.68,7.13-9.05,2.3-3.38,4.5-6.77,6.6-10.21,2.09-3.42,3.99-6.75,5.68-9.97,1.69-3.22,3.15-6.01,4.37-8.36l-.15,.16Z"/><path class="e" d="M2253.33,275.98c2.97,1.85,4.96,4.58,5.99,8.22,1.02,3.64,1.38,7.46,1.07,11.45-.41,4.51-1.23,8.99-2.45,13.45-1.23,4.45-2.4,8.22-3.53,11.29-.92,2.97-2.02,6.5-3.3,10.59-1.28,4.1-2.48,8.33-3.61,12.68-1.13,4.35-2.17,8.63-3.14,12.83-.97,4.19-1.61,7.83-1.92,10.91-.1,2.25-.02,4.19,.23,5.84s.84,2.46,1.76,2.46c1.33,0,3.04-.97,5.14-2.91s4.4-4.5,6.9-7.67c2.51-3.17,5.06-6.7,7.67-10.59s5.16-7.82,7.67-11.81c2.5-3.98,4.83-7.77,6.98-11.35,2.14-3.57,3.99-6.59,5.52-9.05l-.15,.16c1.02-3.07,1.97-5.96,2.84-8.67s1.66-5.37,2.38-7.98c.71-2.61,1.33-5.26,1.84-7.97s.87-5.6,1.08-8.67c.1-.82,.1-1.66,0-2.53-.11-.86-.26-1.71-.46-2.53-.1-.31-.15-.82-.15-1.54,0-.31-.05-.56-.15-.76,.2-2.04,1.02-3.45,2.45-4.22,1.43-.76,3.88-1.15,7.36-1.15,2.45,0,4.45,.49,5.98,1.46,1.54,.97,2.73,2.25,3.61,3.84,.87,1.59,1.43,3.45,1.69,5.6,.25,2.14,.28,4.34,.07,6.6-.51,5.62-1.69,11.94-3.53,18.94-1.84,7.01-3.79,13.88-5.83,20.63-1.84,6.13-3.53,11.86-5.06,17.18-1.54,5.32-2.4,9.82-2.61,13.5-.1,1.03-.15,2.23-.15,3.61s.13,2.68,.38,3.91,.64,2.28,1.15,3.15c.51,.87,1.17,1.31,2,1.31,1.63,0,3.7-1.42,6.21-4.26,2.5-2.83,5.22-6.41,8.13-10.74,2.91-4.32,5.85-8.99,8.82-14,2.96-5.01,5.68-9.76,8.13-14.26,2.45-4.5,4.5-8.33,6.14-11.51,1.63-3.17,2.61-5.01,2.91-5.52l.46-1.08h-.15c.51-1.02,1-1.84,1.46-2.45s1.25-.92,2.38-.92c1.02,0,1.81,.28,2.38,.84s1.05,1.25,1.46,2.07c-.72,1.23-1.54,2.71-2.45,4.45-.92,1.74-1.79,3.48-2.61,5.22-2.05,3.99-4.25,8.36-6.6,13.11-2.35,4.76-4.88,9.52-7.59,14.28-2.71,4.77-5.55,9.38-8.51,13.87-2.97,4.48-6.01,8.46-9.13,11.95-3.12,3.49-6.27,6.25-9.43,8.3-3.17,2.04-6.34,3.06-9.51,3.06-3.58,0-6.57-.48-8.97-1.46-2.41-.97-4.35-2.35-5.83-4.14s-2.53-3.92-3.14-6.38c-.61-2.46-.92-5.18-.92-8.17v-4.48c.1-1.55,.28-3.17,.54-4.87s.59-3.42,1-5.17c-.21,.2-.33,.41-.38,.61s-.18,.41-.38,.61c-2.66,4.19-5.42,8.33-8.28,12.43-2.87,4.09-5.88,7.8-9.05,11.12-3.17,3.32-6.57,6.01-10.2,8.06-3.63,2.05-7.49,3.07-11.58,3.07-5.32,0-9.03-1.77-11.12-5.3s-3.15-8.2-3.15-14.03c0-1.02,.03-2.04,.08-3.07,.05-1.02,.13-2.09,.23-3.22,.31-3.37,.82-7.03,1.54-10.96s1.56-7.95,2.53-12.05c.97-4.09,2.02-8.2,3.15-12.34,1.12-4.15,2.2-8.1,3.22-11.89,1.74-6.13,3.3-11.96,4.68-17.49,1.38-5.52,2.23-9.98,2.53-13.35,.2-1.63,.18-3-.08-4.06-.26-1.08-.49-2.02-.69-2.84v.15c-.2-.51-.31-.92-.31-1.23v-1.08c.1-1.43,.71-2.4,1.84-2.91,1.12-.51,2.4-.76,3.83-.76,2.05,0,4.12,.31,6.21,.92,2.1,.61,3.61,1.18,4.52,1.69Z"/></g><g><path class="e" d="M2587.42,183.17c.41-2.14,.48-4.11,.23-5.9-.26-1.79-.54-3.3-.84-4.53v.16c-.2-.71-.36-1.35-.46-1.92-.1-.56-.1-1.2,0-1.91,.41-1.74,1.38-2.84,2.91-3.3,1.54-.46,3.28-.74,5.22-.84,5.32,.42,9.59,1.31,12.81,2.69,3.22,1.38,5.81,3.25,7.75,5.6,2.25,2.56,4.14,5.73,5.68,9.51,1.53,3.79,2.81,7.8,3.83,12.04,1.02,4.25,1.84,8.54,2.45,12.89,.61,4.34,1.12,8.35,1.54,12.04l.61,4.14c.61,6.13,1.17,12.83,1.68,20.09,.51,7.27,1.02,14.73,1.54,22.39,.61,9.82,1.2,18.85,1.76,27.08,.56,8.23,1.3,15.57,2.22,22.01,3.99-8.59,8.77-17.91,14.35-27.99,5.57-10.07,11.35-20.2,17.33-30.37,5.99-10.18,11.81-20.05,17.49-29.61,5.67-9.56,10.55-18.18,14.65-25.85v-1.23c.2-1.43,.18-2.66-.07-3.68-.26-1.02-.49-1.94-.69-2.76-.1-.51-.2-.94-.31-1.3s-.1-.79,0-1.31c0-1.43,.59-2.4,1.76-2.91,1.18-.51,2.53-.86,4.06-1.07,4.09-.41,7.44-.16,10.05,.76s4.6,2.23,5.99,3.92c1.38,1.68,2.27,3.68,2.68,5.98,.41,2.3,.51,4.68,.31,7.14-.41,5.42-1.31,11.92-2.68,19.48-1.38,7.56-3.07,15.69-5.07,24.39-2,8.7-4.14,17.66-6.44,26.92-2.3,9.26-4.58,18.23-6.82,26.92-2.36,8.9-4.35,16.59-5.99,23.09-1.63,6.5-2.99,12.19-4.06,17.1-1.08,4.91-1.92,9.21-2.53,12.89-.61,3.68-1.07,7.21-1.38,10.58-.42,4.6-.49,9.1-.23,13.5,.25,4.39,1.05,8.36,2.38,11.89s3.3,6.52,5.9,8.97c2.61,2.45,6.06,4.14,10.36,5.06,.61,.2,1.4,.28,2.38,.23,.97-.05,2.02-.08,3.15-.08h4.06c1.38,0,2.63,.1,3.76,.31,1.12,.2,2.04,.53,2.76,.99,.71,.46,1.08,1.1,1.08,1.92,0,1.33-1.23,2.91-3.68,4.75-7.97,1.53-15.08,2.14-21.32,1.84-7.88-.41-14.19-2.2-18.94-5.37-4.76-3.17-8.33-7.21-10.74-12.12-2.4-4.91-3.89-10.51-4.45-16.8-.57-6.28-.54-12.75,.07-19.41,.51-5.83,1.3-11.66,2.38-17.49s2.17-11.19,3.3-16.1c.82-3.79,1.74-7.93,2.76-12.43,1.02-4.5,2.09-9.12,3.22-13.88,1.12-4.75,2.3-9.56,3.53-14.41,1.23-4.85,2.46-9.54,3.68-14.04,1.02-3.98,1.94-7.64,2.76-10.96s1.61-6.52,2.38-9.59c.77-3.07,1.48-6.14,2.15-9.21,.66-3.07,1.4-6.29,2.22-9.66-.82,1.74-1.74,3.55-2.76,5.44-1.02,1.89-2.33,4.25-3.92,7.06-1.59,2.81-3.53,6.26-5.83,10.35-2.29,4.09-5.19,9.23-8.66,15.42-3.48,6.19-7.6,13.58-12.35,22.17-4.75,8.59-10.36,18.77-16.8,30.52v-.16c-.2,.82-.46,1.59-.76,2.3s-.57,1.44-.77,2.15c-.92,2.66-2.05,4.96-3.38,6.9-1.33,1.95-3.47,3.28-6.44,3.99-2.25,.51-4.21,.59-5.9,.23s-3.12-1-4.3-1.92-2.14-2.04-2.91-3.37-1.35-2.76-1.76-4.3c-1.12-4.3-2.12-9.61-2.99-15.95-.87-6.34-1.64-13.19-2.3-20.56-.67-7.36-1.25-14.98-1.76-22.86-.52-7.87-.97-15.49-1.38-22.85l-.77-15.5c-2.04,6.45-3.98,12.56-5.83,18.34-1.84,5.77-3.63,11.38-5.37,16.79-2.97,9.92-5.83,19.17-8.59,27.77-2.76,8.59-5.67,17.03-8.74,25.31-4.09,11.45-8.67,22.76-13.73,33.9-5.07,11.15-10.81,21.63-17.26,31.44-6.44,9.82-13.65,18.77-21.63,26.84-7.97,8.08-16.93,14.73-26.84,19.94-5.32,2.86-10.89,5.01-16.72,6.44-5.83,1.43-11.66,2.15-17.49,2.15-3.58,0-7.11-.26-10.59-.77-3.47-.51-6.85-1.33-10.12-2.45h.15c-7.57-2.36-14.11-5.86-19.63-10.51-5.52-4.65-10.03-10.1-13.5-16.33-3.47-6.24-5.93-13.17-7.36-20.78-1.43-7.62-1.79-15.63-1.08-24.01,.41-5.83,1.44-11.92,3.07-18.25,2.14-8.28,5.26-16.21,9.36-23.78,4.09-7.56,8.95-14.34,14.57-20.32,5.62-5.98,11.86-10.89,18.71-14.72,6.85-3.84,14.06-6.16,21.63-6.98,7.36-.41,13.58,.86,18.64,3.83s9.12,7.03,12.19,12.19c3.06,5.16,5.16,11.12,6.29,17.87,1.12,6.75,1.38,13.65,.76,20.71-.2,1.63-.44,3.32-.69,5.06-.26,1.74-.54,3.38-.84,4.91,0,.31-.1,.77-.31,1.38-.2,1.23-.49,2.66-.84,4.29-.36,1.64-.82,3.17-1.38,4.6-.56,1.43-1.25,2.66-2.07,3.68s-1.79,1.53-2.91,1.53c-1.74,.2-2.87-.13-3.38-.99-.51-.87-.66-1.92-.46-3.15,0-.71,.1-1.46,.31-2.23,.2-.76,.41-1.46,.61-2.07,.2-.41,.35-.87,.46-1.38,.1-.51,.15-.71,.15-.61,.61-2.14,1.18-4.49,1.69-7.05,.51-2.55,.86-5.16,1.08-7.82,.31-3.99,.33-8,.07-12.04-.26-4.04-.95-7.72-2.07-11.04-1.13-3.32-2.76-6.11-4.91-8.36-2.14-2.25-4.96-3.63-8.44-4.14-3.58-.93-7.88-.1-12.88,2.45-5.02,2.56-10.1,6.29-15.27,11.2-5.17,4.91-10.12,10.68-14.88,17.33-4.76,6.65-8.72,13.65-11.89,21.02-1.44,3.88-2.66,8.02-3.68,12.42s-1.74,8.44-2.14,12.12c-.52,6.03-.36,11.81,.46,17.34s2.23,10.45,4.22,14.8c2,4.34,4.58,7.95,7.75,10.81,3.17,2.86,6.85,4.71,11.04,5.52h-.16c.82,.1,1.59,.15,2.3,.15h2.14c8.39,0,16.26-1.91,23.63-5.75,7.36-3.84,14.24-8.93,20.63-15.27,6.39-6.34,12.29-13.62,17.72-21.86,5.42-8.23,10.38-16.75,14.88-25.54,4.5-8.8,8.54-17.51,12.12-26.15,3.57-8.64,6.69-16.59,9.36-23.85,1.63-4.3,3.68-10.1,6.13-17.41,2.45-7.31,5.03-15.29,7.75-23.93,2.7-8.64,5.39-17.54,8.05-26.69,2.66-9.15,5.09-17.69,7.29-25.62,2.2-7.93,4.02-14.83,5.45-20.71,1.43-5.88,2.2-9.84,2.3-11.89Z"/><path class="e" d="M2754,350.21c-5.83,0-10.68-1.55-14.57-4.68-3.89-3.12-7.03-7.08-9.43-11.89-2.4-4.8-4.09-10.12-5.07-15.95-.97-5.83-1.46-11.5-1.46-17.02v-4.53c0-1.48,.1-2.84,.31-4.06,.41-4.91,.97-9.46,1.69-13.65,.71-4.19,1.63-7.77,2.76-10.74,2.04-2.45,4.42-4.24,7.13-5.37,2.71-1.12,5.49-1.69,8.36-1.69,1.63,0,3.3,.2,4.98,.61,1.69,.41,3.25,.97,4.68,1.69,.51-5.42,1.41-10.81,2.69-16.18,1.27-5.37,3.17-10.2,5.67-14.5,2.51-4.3,5.77-7.77,9.82-10.43,4.04-2.66,9.12-3.98,15.26-3.98,5.01,0,9.28,1.05,12.81,3.14,3.53,2.1,6.45,4.94,8.75,8.52,2.29,3.58,3.98,7.82,5.06,12.73,1.08,4.9,1.61,10.17,1.61,15.8,0,3.07-.16,5.99-.46,8.74v-.15c-.82,7.97-2.51,16.16-5.06,24.54-2.56,8.39-5.78,16.26-9.67,23.62,3.99-.82,7.52-2.32,10.59-4.52,3.06-2.2,5.88-4.85,8.44-7.98,2.55-3.12,4.88-6.54,6.98-10.27,2.09-3.73,4.11-7.49,6.06-11.28l3.37-6.13c.51-.2,1-.41,1.46-.61,.46-.2,.84-.31,1.15-.31,.51,0,1.02,.2,1.53,.61s.93,1.23,1.23,2.45c-1.74,4.09-3.99,8.77-6.75,14.04-2.76,5.26-6.03,10.25-9.81,14.95-3.79,4.71-8.11,8.74-12.96,12.12-4.85,3.38-10.25,5.22-16.18,5.52-2.66,3.99-5.49,7.62-8.51,10.89-3.02,3.28-6.26,6.09-9.74,8.44-3.48,2.36-7.12,4.19-10.89,5.52-3.79,1.33-7.72,2-11.81,2Zm30.37-27.45c-5.11-1.53-9.51-3.55-13.19-6.06-3.68-2.51-6.75-5.45-9.21-8.82-2.46-3.38-4.37-7.11-5.75-11.2-1.38-4.09-2.33-8.48-2.84-13.19-.31,1.63-.54,3.32-.69,5.06-.16,1.74-.33,3.48-.54,5.22-.31,3.28-.46,6.44-.46,9.51,0,3.79,.23,7.44,.69,10.96,.46,3.53,1.25,6.65,2.38,9.36,1.12,2.71,2.61,4.88,4.45,6.52,1.85,1.64,4.09,2.46,6.75,2.46,3.47,0,6.69-.82,9.66-2.46,2.96-1.63,5.88-4.09,8.74-7.36Zm-13.96-51.24c0,4.3,.25,8.8,.77,13.5,.5,4.71,1.5,9.08,2.99,13.11,1.48,4.04,3.53,7.52,6.13,10.43,2.61,2.91,6.06,4.78,10.36,5.6,1.94-3.17,3.76-6.67,5.44-10.51,1.69-3.83,3.2-7.77,4.53-11.81,1.33-4.04,2.42-8.18,3.3-12.42,.87-4.24,1.46-8.36,1.76-12.35,.2-1.43,.31-2.78,.31-4.06v-3.91c0-4.4-.38-8.54-1.15-12.43-.76-3.89-1.94-7.26-3.53-10.12-1.59-2.86-3.63-5.14-6.13-6.82-2.51-1.69-5.45-2.53-8.82-2.53-2.36,0-4.43,.84-6.22,2.53-1.79,1.68-3.3,3.96-4.52,6.82-1.23,2.87-2.2,6.19-2.91,9.97-.71,3.79-1.28,7.73-1.69,11.81-.2,1.84-.36,3.89-.46,6.13-.1,2.25-.15,4.6-.15,7.05Z"/><path class="e" d="M2857.7,272.6c-.31,1.13-.59,2.2-.84,3.22-.25,1.03-.48,2-.69,2.91,1.23-1.74,2.42-3.57,3.6-5.52,1.18-1.94,2.48-3.94,3.92-5.98,2.76-4.3,5.62-8.61,8.59-12.96,2.97-4.34,6.09-8.28,9.36-11.81,3.27-3.53,6.72-6.39,10.35-8.59,3.63-2.2,7.49-3.3,11.58-3.3,2.86,0,5.22,.49,7.05,1.46,1.85,.97,3.3,2.3,4.37,3.99,1.08,1.69,1.76,3.71,2.07,6.06,.31,2.36,.36,4.91,.16,7.67-.51,5.73-1.84,12.15-3.99,19.26-2.14,7.11-4.55,14.24-7.21,21.39-2.25,6.55-4.34,12.99-6.28,19.33-1.95,6.34-3.17,11.71-3.68,16.1,0,1.03,.03,2.23,.07,3.61,.05,1.38,.18,2.68,.39,3.91,.2,1.23,.56,2.25,1.07,3.07s1.18,1.23,2,1.23c1.43,0,3.32-1.25,5.68-3.76,2.35-2.51,4.88-5.7,7.59-9.59,2.71-3.89,5.45-8.18,8.2-12.88,2.76-4.71,5.37-9.25,7.82-13.65,2.46-4.4,4.6-8.33,6.44-11.81,1.85-3.47,3.17-5.99,3.99-7.52,0-.31,.16-.61,.46-.92l.61-1.23c.51-.92,.97-1.69,1.38-2.3s1.18-.92,2.3-.92c1.02,0,1.82,.28,2.38,.84,.56,.56,1.04,1.25,1.46,2.07-.72,1.23-1.51,2.71-2.38,4.45-.86,1.74-1.71,3.48-2.53,5.22-2.05,3.99-4.28,8.36-6.67,13.11-2.4,4.76-4.96,9.51-7.67,14.26-2.71,4.76-5.55,9.36-8.51,13.81-2.97,4.45-6.01,8.41-9.12,11.89-3.13,3.47-6.26,6.24-9.44,8.28-3.17,2.05-6.34,3.07-9.51,3.07-3.57,0-6.57-.54-8.97-1.61-2.41-1.07-4.32-2.53-5.75-4.37-1.44-1.84-2.49-4.04-3.15-6.6-.67-2.55-1-5.37-1-8.44v-2.14c0-.82,.05-1.59,.16-2.3,.41-3.99,1.2-8.23,2.38-12.73,1.18-4.49,2.48-9.1,3.92-13.8,1.43-4.71,2.99-9.34,4.68-13.88,1.69-4.55,3.3-8.82,4.83-12.81,2.05-5.52,3.86-10.43,5.45-14.73,1.59-4.3,2.48-7.46,2.68-9.51,.1-1.84-.35-2.76-1.38-2.76-1.85,0-3.97,.99-6.37,2.99-2.4,2-4.96,4.6-7.67,7.82s-5.44,6.83-8.2,10.81c-2.76,3.99-5.42,8.01-7.97,12.05-2.56,4.04-4.89,7.85-6.98,11.43-2.1,3.58-3.86,6.55-5.3,8.9v-.16l-2.45,4.3h.15c-1.74,4.19-3.22,8.97-4.45,14.34-1.23,5.37-2.04,10.46-2.45,15.27-.1,.82-.16,1.61-.16,2.38v2.38c0,2.46,.16,4.56,.46,6.29,.31,1.74,.61,3.17,.92,4.3,.31,.92,.46,1.63,.46,2.14,0,1.44-1.12,2.15-3.37,2.15-3.68,0-6.75-.74-9.21-2.23-2.45-1.48-4.37-3.42-5.75-5.83-1.38-2.4-2.35-5.14-2.91-8.2-.56-3.07-.84-6.19-.84-9.36,0-1.02,.03-2.04,.08-3.06,.05-1.02,.13-2.1,.23-3.22,.31-3.38,.74-6.9,1.3-10.59,.57-3.68,1.23-7.39,2-11.12,.77-3.73,1.61-7.39,2.53-10.97,.92-3.57,1.78-7,2.61-10.27,1.43-5.52,2.68-10.68,3.75-15.49,1.08-4.81,1.77-8.95,2.08-12.43,.1-1.63,.07-3.07-.08-4.3-.15-1.23-.33-2.35-.53-3.38-.11-.51-.18-.97-.23-1.38-.05-.41-.08-.82-.08-1.23,.1-1.43,.74-2.4,1.92-2.91,1.18-.51,2.48-.76,3.92-.76,3.88,0,7,.64,9.36,1.91,2.35,1.28,4.17,2.94,5.44,4.99,1.28,2.04,2.1,4.32,2.46,6.82,.35,2.51,.44,5.04,.23,7.59-.21,2.76-.59,5.55-1.15,8.36-.57,2.81-1.21,5.45-1.92,7.9Z"/><path class="e" d="M3013.09,352.37c-9,0-15.37-2.27-19.1-6.83-3.73-4.55-5.6-10.97-5.6-19.25,0-.92,.02-1.92,.07-2.99,.05-1.08,.13-2.17,.23-3.3v-1.69c0-.4,.02-.82,.07-1.23,.05-.41,.1-.89,.16-1.46,.05-.56,.18-1.35,.38-2.38-2.87,4.71-5.99,9.36-9.36,13.96-3.38,4.6-6.98,8.74-10.82,12.43-3.83,3.68-7.84,6.65-12.04,8.89-4.19,2.25-8.49,3.38-12.88,3.38-3.99,0-7.37-.69-10.12-2.07-2.76-1.38-4.98-3.25-6.67-5.6-1.69-2.36-2.89-5.09-3.61-8.21-.71-3.11-1.07-6.36-1.07-9.74v-2.46c0-.82,.05-1.63,.15-2.45,.61-5.11,1.92-10.79,3.92-17.03,2-6.23,4.55-12.55,7.67-18.94,3.12-6.39,6.72-12.6,10.81-18.64,4.09-6.03,8.57-11.38,13.43-16.03,4.85-4.65,9.99-8.38,15.42-11.2,5.41-2.81,11.04-4.21,16.87-4.21,2.76,0,5.31,.41,7.67,1.23,2.35,.82,4.55,2,6.6,3.53l1.53-5.83c1.12-4.81,2.2-9.4,3.22-13.8,1.02-4.4,1.94-8.44,2.76-12.12,.82-3.68,1.48-6.9,2-9.66,.51-2.76,.82-4.91,.92-6.45,.1-1.74,.07-3.22-.08-4.45-.15-1.23-.33-2.3-.53-3.22-.11-.51-.18-.99-.23-1.46-.05-.46-.07-.89-.07-1.3,.1-1.44,.74-2.38,1.91-2.84,1.18-.46,2.48-.69,3.92-.69,3.98,0,7.18,.62,9.59,1.85,2.4,1.23,4.21,2.84,5.44,4.83,1.23,2,2,4.28,2.3,6.84s.36,5.17,.16,7.83c-.2,2.36-.67,5.53-1.38,9.52-.71,4-1.63,8.52-2.76,13.59-1.13,5.07-2.38,10.54-3.76,16.43-1.38,5.88-2.79,11.95-4.22,18.19-.41,2.05-.97,4.53-1.69,7.45-.71,2.92-1.48,6.01-2.3,9.29-1.12,4.3-2.27,8.91-3.45,13.82-1.17,4.91-2.27,9.8-3.3,14.66s-1.84,9.52-2.45,13.97c-.61,4.45-.92,8.37-.92,11.75v2.61c0,.82,.1,1.59,.31,2.3,.61,4.19,2.45,6.29,5.52,6.29,1.23,0,2.58-.31,4.06-.92,1.48-.61,2.93-1.4,4.37-2.38,1.43-.97,2.81-2.04,4.14-3.22,1.33-1.18,2.51-2.33,3.53-3.45,2.66-2.96,5.22-6.31,7.67-10.05,2.46-3.73,4.78-7.54,6.98-11.43,2.2-3.88,4.24-7.75,6.14-11.58,1.89-3.83,3.6-7.29,5.13-10.35,1.43-2.87,2.64-5.32,3.61-7.37,.97-2.04,1.76-3.47,2.38-4.3,.41-.31,.84-.51,1.3-.61,.46-.1,.84-.15,1.15-.15,.82,0,1.51,.28,2.07,.84,.57,.56,1.05,1.25,1.46,2.07-1.02,1.84-2.02,3.89-2.99,6.13-.97,2.25-2.02,4.45-3.15,6.6-1.84,3.68-3.73,7.49-5.67,11.43-1.95,3.94-3.96,7.85-6.06,11.73-2.1,3.89-4.24,7.67-6.44,11.35-2.2,3.68-4.47,7.06-6.83,10.12-1.74,2.15-3.58,4.29-5.52,6.42s-4.04,4.06-6.28,5.77c-2.25,1.72-4.66,3.13-7.21,4.24-2.56,1.12-5.37,1.77-8.44,1.97Zm-19.33-61.82c1.12-5.11,2.3-10.4,3.53-15.88,1.23-5.47,2.51-11.02,3.84-16.64,.2-1.12,.48-2.17,.84-3.15,.36-.97,.64-2.02,.84-3.15-2.04-1.53-4.5-2.3-7.36-2.3-3.58,0-7.21,1.41-10.89,4.22-3.68,2.81-7.21,6.44-10.59,10.89-3.38,4.45-6.54,9.44-9.51,14.96-2.96,5.52-5.6,11.02-7.9,16.49-2.3,5.47-4.17,10.61-5.6,15.42-1.44,4.81-2.25,8.69-2.46,11.66-.2,1.43-.25,2.97-.15,4.6,.1,1.63,.38,3.15,.84,4.52,.46,1.38,1.2,2.51,2.22,3.38s2.46,1.3,4.3,1.3c2.25,0,4.6-.82,7.06-2.45,2.45-1.63,4.9-3.79,7.36-6.44,2.45-2.66,4.83-5.68,7.13-9.05,2.3-3.38,4.5-6.77,6.6-10.21,2.1-3.42,3.99-6.75,5.68-9.97,1.68-3.22,3.15-6.01,4.37-8.36l-.16,.16Z"/><path class="e" d="M3139.79,309.26c-2.76,4.91-5.83,10.05-9.21,15.42-3.38,5.37-7.24,10.25-11.58,14.65-4.34,4.4-9.31,8.03-14.88,10.89-5.58,2.87-11.94,4.3-19.1,4.3-5.32,0-9.84-1.12-13.58-3.38-3.73-2.25-6.75-5.24-9.05-8.97-2.3-3.73-3.96-8.03-4.98-12.89-1.02-4.85-1.53-9.94-1.53-15.26v-3.92c0-1.27,.1-2.63,.31-4.06v.16c.51-5.73,1.53-11.53,3.07-17.41,1.53-5.88,3.5-11.61,5.9-17.18,2.4-5.58,5.19-10.79,8.36-15.65,3.17-4.85,6.67-9.13,10.51-12.81,3.83-3.68,7.92-6.57,12.27-8.67,4.34-2.1,8.87-3.15,13.58-3.15s8.51,.97,12.04,2.91c3.53,1.95,6.5,4.47,8.9,7.59,2.4,3.13,4.19,6.65,5.37,10.59s1.66,7.95,1.46,12.04c-.61,5.73-2.66,11-6.13,15.8s-7.67,9.05-12.58,12.73c-4.91,3.68-10.2,6.75-15.88,9.21-5.67,2.45-11.12,4.24-16.33,5.37-.41,1.74-.74,3.53-.99,5.37-.26,1.84-.49,3.79-.69,5.83-.1,.82-.15,1.66-.15,2.53v2.53c0,2.25,.18,4.43,.54,6.52,.35,2.1,.99,3.99,1.91,5.67,.92,1.69,2.2,3.07,3.83,4.15,1.63,1.07,3.68,1.71,6.13,1.91,3.89-.1,7.57-1.33,11.04-3.68,3.48-2.36,6.73-5.24,9.74-8.67,3.02-3.42,5.77-7.11,8.29-11.04,2.5-3.94,4.73-7.54,6.67-10.81v.15c2.46-4.3,4.73-8.51,6.83-12.65,2.1-4.15,4.01-7.91,5.75-11.28,.82-1.54,1.74-3.28,2.76-5.22,1.02-1.94,1.94-3.63,2.76-5.07,1.23-.51,2-.76,2.3-.76,.92,0,1.66,.28,2.22,.84,.57,.56,1.05,1.25,1.46,2.07l-1.53,3.37c-1.84,3.79-4.12,8.31-6.82,13.58-2.72,5.27-5.71,10.72-8.97,16.33Zm-11.81-55.22c-1.53-2.96-3.38-4.45-5.52-4.45-1.94,0-4.06,.92-6.37,2.76-2.3,1.85-4.6,4.25-6.9,7.21-2.3,2.97-4.58,6.29-6.82,9.98-2.25,3.68-4.27,7.36-6.06,11.04-1.79,3.68-3.38,7.18-4.75,10.51-1.38,3.32-2.33,6.06-2.84,8.2,3.47-.41,7.52-1.53,12.12-3.38,4.6-1.84,9.02-4.24,13.26-7.2,4.24-2.97,7.9-6.39,10.97-10.28,3.07-3.88,4.81-8.13,5.22-12.73,.41-3.78-.36-7.67-2.3-11.66Z"/></g></g></g></svg>